<?xml version="1.0" encoding="utf-8"?>
<!-- Generator: Adobe Illustrator 28.1.0, SVG Export Plug-In . SVG Version: 6.00 Build 0)  -->
<svg version="1.1" id="Capa_1" xmlns="http://www.w3.org/2000/svg" xmlns:xlink="http://www.w3.org/1999/xlink" x="0px" y="0px"
	 viewBox="0 0 512 512" style="enable-background:new 0 0 512 512;" xml:space="preserve">
<style type="text/css">
	.st0{fill:#ECC4DC;}
</style>
<g>
	<path class="st0" d="M381.6,489c-83.7,0-167.4,0-251.2,0c-8.7-1.8-17.7-2.9-26.1-5.7c-49-15.9-81.1-59.9-81.2-111.6
		c-0.2-77.2-0.1-154.4,0-231.6c0-25,7-47.9,21.8-68.1c24.1-32.8,56.9-49,97.6-49c75.1-0.1,150.1-0.1,225.2,0.1
		c7.9,0,15.8,0.4,23.5,1.8c43.1,7.8,73.1,32.3,89.5,72.7c4.2,10.4,5.6,21.9,8.3,32.9c0,83.7,0,167.5,0,251.2
		c-0.6,3.3-1.1,6.5-1.7,9.8c-8.1,42.8-32.3,72.7-72.4,89.2C404.4,484.9,392.7,486.3,381.6,489z M449.9,256c0.1,0,0.1,0,0.2,0
		c0-37.9-0.1-75.8,0-113.8c0-12.1-1.6-24-7-34.9c-14.7-29.6-38.7-45.3-71.8-45.4c-76.9-0.3-153.8-0.1-230.7,0
		c-4.5,0-9.1,0.4-13.6,1.1c-35.3,5-64.5,36.9-64.7,72.6c-0.5,79.3-0.2,158.7-0.3,238c0,10.8,2.1,21.2,6.9,30.8
		c14.9,30.2,39.3,45.6,73,45.7c76,0.1,152,0.1,227.9,0c5.1,0,10.3-0.4,15.4-1.1c34.6-4.7,64-37,64.5-71.9
		C450.3,336.7,449.9,296.4,449.9,256z"/>
	<path class="st0" d="M255.5,372.5C191,372,138.8,319.1,139.6,255.3c0.8-64.5,53.1-116.3,117-115.7c64.5,0.5,116.7,53.4,115.9,117.2
		C371.7,321.2,319.3,373,255.5,372.5z M256.1,333.6c42.9-0.1,77.4-34.7,77.5-77.5c0-42.9-34.5-77.5-77.4-77.6
		c-43-0.1-77.9,34.8-77.7,77.8C178.7,299.2,213.3,333.7,256.1,333.6z"/>
	<path class="st0" d="M382,158.8c-16-0.1-28.8-12.9-28.8-29s13.3-29.4,29.2-29.1c15.9,0.2,28.9,13.3,28.9,29.1
		C411.4,145.8,398.1,158.9,382,158.8z"/>
</g>
</svg>
