<svg width="512" height="498" viewBox="0 0 512 498" fill="none" xmlns="http://www.w3.org/2000/svg">
<path d="M77.2543 1.32607C62.7543 5.32607 49.7543 14.9261 26.6543 38.5261C9.85425 55.7261 5.65425 62.0261 2.25425 75.3261C-0.245751 84.9261 -0.745751 102.526 1.15425 116.426C12.8542 205.026 91.9543 321.926 197.154 406.226C256.054 453.426 315.654 484.126 369.954 495.026C385.054 498.026 416.554 498.326 426.754 495.526C441.354 491.526 452.254 484.026 473.954 462.926C525.254 413.326 524.054 367.926 470.154 328.226C446.454 310.626 425.354 302.526 403.754 302.626C379.354 302.726 360.154 312.126 333.354 337.026C326.954 342.926 320.654 348.026 319.154 348.426C310.554 350.626 292.154 342.726 273.754 328.926C243.154 306.026 198.154 261.326 175.754 231.726C161.754 213.126 155.754 200.726 155.754 190.426C155.754 184.426 156.454 183.126 165.954 173.026C182.854 154.726 190.154 138.126 190.054 118.326C189.854 100.726 181.854 79.8261 166.554 57.2261C144.054 23.9261 124.854 6.62607 104.254 1.22607C97.9543 -0.473933 83.7543 -0.373933 77.2543 1.32607Z" fill="#ECC4DC"/>
</svg>
