<?xml version="1.0" encoding="utf-8"?>
<!-- Generator: Adobe Illustrator 26.0.3, SVG Export Plug-In . SVG Version: 6.00 Build 0)  -->
<svg version="1.1" id="Camada_1" xmlns="http://www.w3.org/2000/svg" xmlns:xlink="http://www.w3.org/1999/xlink" x="0px" y="0px"
	 viewBox="0 0 1920 474" style="enable-background:new 0 0 1920 474;" xml:space="preserve">
<style type="text/css">
	.st0{fill:#DEA258;}
</style>
<g>
	<g>
		<path class="st0" d="M225.8,74.8c5.2,0.1,8.8,2.7,11.2,7.6c14.5,29.5,29.1,59,43.6,88.5c1.2,2.5,2.7,3.6,5.5,4
			c32,4.5,63.9,9.2,95.8,13.9c1.4,0.2,2.7,0.4,4.1,0.7c9.4,2,12.9,12.7,6.5,19.8c-3,3.3-6.3,6.3-9.6,9.5c-21,20.5-42,40.9-63,61.4
			c-1.6,1.6-2.4,2.9-2,5.5c5.8,33,11.4,66.1,17,99.1c0.9,5-0.6,9.2-4.7,12.2c-4.2,3.1-8.8,3-13.4,0.6
			c-29.4-15.5-58.9-30.9-88.3-46.5c-2.2-1.2-3.9-1.3-6.2,0c-29.1,15.4-58.2,30.6-87.3,46c-4.6,2.4-9.1,3.5-13.8,0.5
			c-4.4-2.8-6.3-7-5.5-12.2c4.4-26,8.9-52.1,13.3-78.1c1.2-7.1,2.3-14.3,3.7-21.4c0.5-2.4-0.1-3.9-1.8-5.5
			c-23.1-22.4-46.1-44.9-69.2-67.3c-0.4-0.4-0.9-0.9-1.3-1.3c-4.5-3.8-6.6-8.5-4.7-14.3c2-5.9,6.9-7.6,12.6-8.4
			c32.2-4.6,64.4-9.3,96.6-13.9c2.7-0.4,4-1.5,5.2-3.9c14.5-29.5,29.1-59,43.6-88.5C216.4,77.5,220,74.8,225.8,74.8z"/>
	</g>
	<g>
		<path class="st0" d="M587.8,74.8c5.2,0.1,8.8,2.7,11.2,7.6c14.5,29.5,29.1,59,43.6,88.5c1.2,2.5,2.7,3.6,5.5,4
			c32,4.5,63.9,9.2,95.8,13.9c1.4,0.2,2.7,0.4,4.1,0.7c9.4,2,12.9,12.7,6.5,19.8c-3,3.3-6.3,6.3-9.6,9.5c-21,20.5-42,40.9-63,61.4
			c-1.6,1.6-2.4,2.9-2,5.5c5.8,33,11.4,66.1,17,99.1c0.9,5-0.6,9.2-4.7,12.2c-4.2,3.1-8.8,3-13.4,0.6
			c-29.4-15.5-58.9-30.9-88.3-46.5c-2.2-1.2-3.9-1.3-6.2,0c-29.1,15.4-58.2,30.6-87.3,46c-4.6,2.4-9.1,3.5-13.8,0.5
			c-4.4-2.8-6.3-7-5.5-12.2c4.4-26,8.9-52.1,13.3-78.1c1.2-7.1,2.3-14.3,3.7-21.4c0.5-2.4-0.1-3.9-1.8-5.5
			c-23.1-22.4-46.1-44.9-69.2-67.3c-0.4-0.4-0.9-0.9-1.3-1.3c-4.5-3.8-6.6-8.5-4.7-14.3c2-5.9,6.9-7.6,12.6-8.4
			c32.2-4.6,64.4-9.3,96.6-13.9c2.7-0.4,4-1.5,5.2-3.9c14.5-29.5,29.1-59,43.6-88.5C578.4,77.5,582,74.8,587.8,74.8z"/>
	</g>
	<g>
		<path class="st0" d="M949.8,74.8c5.2,0.1,8.8,2.7,11.2,7.6c14.5,29.5,29.1,59,43.6,88.5c1.2,2.5,2.7,3.6,5.5,4
			c32,4.5,63.9,9.2,95.8,13.9c1.4,0.2,2.7,0.4,4.1,0.7c9.4,2,12.9,12.7,6.5,19.8c-3,3.3-6.3,6.3-9.6,9.5c-21,20.5-42,40.9-63,61.4
			c-1.6,1.6-2.4,2.9-2,5.5c5.8,33,11.4,66.1,17,99.1c0.9,5-0.6,9.2-4.7,12.2c-4.2,3.1-8.8,3-13.4,0.6
			c-29.4-15.5-58.9-30.9-88.3-46.5c-2.2-1.2-3.9-1.3-6.2,0c-29.1,15.4-58.2,30.6-87.3,46c-4.6,2.4-9.1,3.5-13.8,0.5
			c-4.4-2.8-6.3-7-5.5-12.2c4.4-26,8.9-52.1,13.3-78.1c1.2-7.1,2.3-14.3,3.7-21.4c0.5-2.4-0.1-3.9-1.8-5.5
			c-23.1-22.4-46.1-44.9-69.2-67.3c-0.4-0.4-0.9-0.9-1.3-1.3c-4.5-3.8-6.6-8.5-4.7-14.3c2-5.9,6.9-7.6,12.6-8.4
			c32.2-4.6,64.4-9.3,96.6-13.9c2.7-0.4,4-1.5,5.2-3.9c14.5-29.5,29.1-59,43.6-88.5C940.4,77.5,944,74.8,949.8,74.8z"/>
	</g>
	<g>
		<path class="st0" d="M1311.8,74.8c5.2,0.1,8.8,2.7,11.2,7.6c14.5,29.5,29.1,59,43.6,88.5c1.2,2.5,2.7,3.6,5.5,4
			c32,4.5,63.9,9.2,95.8,13.9c1.4,0.2,2.7,0.4,4.1,0.7c9.4,2,12.9,12.7,6.5,19.8c-3,3.3-6.3,6.3-9.6,9.5c-21,20.5-42,40.9-63,61.4
			c-1.6,1.6-2.4,2.9-2,5.5c5.8,33,11.4,66.1,17,99.1c0.9,5-0.6,9.2-4.7,12.2c-4.2,3.1-8.8,3-13.4,0.6
			c-29.4-15.5-58.9-30.9-88.3-46.5c-2.2-1.2-3.9-1.3-6.2,0c-29.1,15.4-58.2,30.6-87.3,46c-4.6,2.4-9.1,3.5-13.8,0.5
			c-4.4-2.8-6.3-7-5.5-12.2c4.4-26,8.9-52.1,13.3-78.1c1.2-7.1,2.3-14.3,3.7-21.4c0.5-2.4-0.1-3.9-1.8-5.5
			c-23.1-22.4-46.1-44.9-69.2-67.3c-0.4-0.4-0.9-0.9-1.3-1.3c-4.5-3.8-6.6-8.5-4.7-14.3c2-5.9,6.9-7.6,12.6-8.4
			c32.2-4.6,64.4-9.3,96.6-13.9c2.7-0.4,4-1.5,5.2-3.9c14.5-29.5,29.1-59,43.6-88.5C1302.4,77.5,1306,74.8,1311.8,74.8z"/>
	</g>
	<g>
		<path class="st0" d="M1694.8,74.8c5.2,0.1,8.8,2.7,11.2,7.6c14.5,29.5,29.1,59,43.6,88.5c1.2,2.5,2.7,3.6,5.5,4
			c32,4.5,63.9,9.2,95.8,13.9c1.4,0.2,2.7,0.4,4.1,0.7c9.4,2,12.9,12.7,6.5,19.8c-3,3.3-6.3,6.3-9.6,9.5c-21,20.5-42,40.9-63,61.4
			c-1.6,1.6-2.4,2.9-2,5.5c5.8,33,11.4,66.1,17,99.1c0.9,5-0.6,9.2-4.7,12.2c-4.2,3.1-8.8,3-13.4,0.6
			c-29.4-15.5-58.9-30.9-88.3-46.5c-2.2-1.2-3.9-1.3-6.2,0c-29.1,15.4-58.2,30.6-87.3,46c-4.6,2.4-9.1,3.5-13.8,0.5
			c-4.4-2.8-6.3-7-5.5-12.2c4.4-26,8.9-52.1,13.3-78.1c1.2-7.1,2.3-14.3,3.7-21.4c0.5-2.4-0.1-3.9-1.8-5.5
			c-23.1-22.4-46.1-44.9-69.2-67.3c-0.4-0.4-0.9-0.9-1.3-1.3c-4.5-3.8-6.6-8.5-4.7-14.3c2-5.9,6.9-7.6,12.6-8.4
			c32.2-4.6,64.4-9.3,96.6-13.9c2.7-0.4,4-1.5,5.2-3.9c14.5-29.5,29.1-59,43.6-88.5C1685.4,77.5,1689,74.8,1694.8,74.8z"/>
	</g>
</g>
</svg>
