<?xml version="1.0" encoding="utf-8"?>
<!-- Generator: Adobe Illustrator 28.1.0, SVG Export Plug-In . SVG Version: 6.00 Build 0)  -->
<svg version="1.1" id="Layer_1" xmlns="http://www.w3.org/2000/svg" xmlns:xlink="http://www.w3.org/1999/xlink" x="0px" y="0px"
	 viewBox="0 0 1080 402" style="enable-background:new 0 0 1080 402;" xml:space="preserve">
<style type="text/css">
	.st0{fill:#FFFFFF;}
	.st1{fill:#ECC4DC;}
</style>
<g>
	<path class="st0" d="M372.6,119.5c-1,1.4-2.4,1.7-3.8,2.3c-7,2.6-13.9,5.7-19.9,10c-3.1,2.2-4.8,6.1-7.4,8.9
		c-4.7,5.2-9.8,9.9-14.2,15.3c-4.5,5.4-8.3,11.2-11.9,17.3c3.1-3.5,6.4-6.9,9.3-10.5c6.7-8.2,14.5-15.4,22.4-22.4
		c5.5-4.8,11.4-9,18.1-12.3c2.9-1.4,6.3-1.5,9-2.9c5.6-2.9,7.9,1.5,11.3,3.7c-0.6,1.7-1.7,1-2.6,1c-11.2-0.3-20.8,3.2-28.7,11.3
		c-7.5,7.7-16.2,14.1-24.1,21.4c-4.5,4.2-7.7,9.4-12.2,13.7c-9.1,8.6-17.7,17.8-26.9,26.3c-4.5,4.1-9.5,8-15.5,9.9
		c-1.3,0.4-0.9,2.1-2.3,2.3c-1.2,0.1-2.8,2.2-3.3,0.5c-0.5-1.6-2.4-3.5-0.5-5.5c0.7-0.8,1.6-1.1,2.5-1.4c2.2-0.6,4-1.8,5.7-3.2
		c1.6-1.4,3.8-2.3,3.1-5.3c-0.3-1.4,1-2.9,2.2-3.6c10.2-6.6,17.8-15.6,25.5-24.8c10.8-12.9,22-25.5,33.3-37.9
		c6.5-7.1,13.7-13.4,23.4-16.1C368.5,116.3,370.2,118.1,372.6,119.5 M313.4,174.5c-1.3,0.9-2.4,1.9-2.5,3.7
		C311.7,177,313.4,176.3,313.4,174.5c0-0.1,0.1-0.2,0.2-0.3C313.5,174.3,313.4,174.4,313.4,174.5 M309.4,179.8
		c-0.1-0.4-0.3-0.7-0.7-0.4c-0.3,0.3-0.7,0.7-0.7,1.1c-0.1,0.4,0.4,0.5,0.7,0.4C309.2,180.7,309.3,180.3,309.4,179.8"/>
	<path class="st1" d="M200.5,179.6c-2.3-4.4-6.2-7-10.4-8.9c-6.5-2.9-12.3-6.7-17.6-11.4c-5.4-4.8-12.1-5.4-18.7-6.6
		c-4-0.8-8.1-1.2-12.3-1.8c2.4-4.9,4.7-6.1,11.6-4c5.1,1.5,10.2,3,15.1,5.4c9.3,4.5,17.3,10.9,26,16.2c14.2,8.7,27,19.5,41.8,27.2
		c4.2,2.2,8.8,3.5,12.7,6.2c1.3,0.9,2.9,1.6,1.7,3.6c-0.7,1.2,0.5,1.1,1,1.4c1,0.5,2.2,0.4,2.9,1.4c1.5,1.7,1.5,3.1-0.6,4.3
		c-7.3-0.9-13.4-4.5-19.6-8.2c-10.5-6.3-22-11-32-18.1c-10.5-7.5-22.8-11.3-33.6-18c-7.3-4.5-14.9-6.8-23.4-7.3
		c-5-0.3-9.4,1.2-13.9,2.9l-0.1,0c1-2.9,3.2-5.1,4.9-7.5c0.3-0.4,0.8-0.9,1.1-0.8c7.5,1.7,15.3,0.6,22.6,3.7
		c7.2,3,14.4,5.8,21.2,9.7c6.4,3.7,12.8,7.4,19.2,11.1c1.4,2.6,4.2,3.5,6.4,4.9c4.4,2.7,8.1,6.5,13.2,8c2.7,2.7,5.8,4.7,9.6,5.4
		c4.7,3.9,10.3,5.2,16.1,6.2c-5.5-1.8-10.2-5.4-16-6.4c-2.7-2.7-6-4.4-9.7-5.4c-1.2-2.4-3.8-3.3-5.9-4.5
		C209.5,185.5,205.6,181.7,200.5,179.6"/>
	<path class="st0" d="M408.3,239.3c-0.7-3.1-1.4-6.1-1.9-9.1c-1-5.3-2.7-10.2-7.1-13.6c-4.6-3.6-8.3-8.2-13.7-10.8
		c-10.8-5.2-21.6-4.6-32.3-0.1c-9.3,4-16.3,11-23.5,17.7c-7.1,6.6-14.9,12.2-22.7,17.8c-7.7,5.6-15.3,11.3-22.5,17.5
		c-3,2.5-6.7,2.7-10.1,4.1c-5.2,2.1-10.6,3.6-16,5.5c-1.5,0.5-2.3,0.2-1.5-1.4c1-2,1.8-4.2,4.7-4.5c12.3-1.1,21.7-8.3,31.2-15.3
		c8.1-6,15.3-13.3,24.4-17.9c2.7-1.4,5-3.5,6.4-5.9c3.6-6,9.3-9.3,15-12.4c3.1-1.7,5.3-4.3,8.3-5.9c6.4-3.5,13.1-6,20.3-7.3
		c0.8-0.2,1.8-0.2,2.5-0.6c5.9-3.5,10.8-2.1,15.5,2.5c3.5,3.4,7.3,6.7,11.4,9.1c7.4,4.3,10.5,11.2,13.1,18.6
		C411.8,233.1,411.6,235.1,408.3,239.3"/>
	<path class="st0" d="M262.6,256.4c0.4-3.1,2.1-4.4,5.1-5.3c9.1-2.8,17.5-7.4,25.4-12.8c10-6.8,18.7-15.2,27.4-23.6
		c5.8-5.7,10.9-12.2,17.8-16.5c4.5-2.9,9.2-5.4,13.3-9c2.5-2.1,6-1.9,9.2-1.3c1.7,0.3,3.4,0.7,5.1,0.1c7.8-3.1,15.2-0.9,23,0.8
		c9.5,2.1,12.8,10.2,17.8,16.6c2.6,3.4,4.9,7,7.4,10.5c0.6,0.8,1.3,1.6,1.2,2.6c-0.2,1.6,0.1,4.1-1.5,4.5c-1.5,0.4-1.7-2.2-2-3.4
		c-2.5-10.4-11.3-15-19-20.4c-5.1-3.6-10.3-7.7-16.9-8.1c-11-0.7-21.2,1.8-30.5,8.1c-13.1,8.7-23.5,20.4-35.9,29.9
		c-9.9,7.5-19.1,16-30.3,21.6C273.9,253.2,268.7,256.2,262.6,256.4L262.6,256.4z"/>
	<path class="st0" d="M393.3,139.3c-0.8-1.9-2.7-2.6-2-4.9c4.7,6.3,10.9,11.3,14.8,18.8c-3.3-0.8-4.8-3.2-6.7-4.8
		c-8.6-7.1-18-7.1-28.1-4.3c-8.8,2.4-14.5,9.1-21.3,14.4c-12.9,10.1-22.7,23.4-34.8,34.3c-13.2,11.9-25.8,24.5-40.9,34.2
		c-1.1,0.7-2.5,2.3-3.4,0.8c-0.7-1.1-0.9-3.4,1.1-4.5c4.2-2.5,7.6-6,11.5-8.9c11.7-8.8,22.1-19,32.8-28.9
		c8.5-7.9,16.1-16.6,24.2-24.8c3.9-3.9,8.8-6.9,13.2-10.4c1.8-1.4,3.6-2.8,5.1-4.7c2.8-3.7,7.2-4.9,11.3-6.4
		c1.7-0.6,3.6-0.8,5.2-1.7c4.5-2.5,8.7-1.5,13,0.4C389.9,138.7,391.3,139.3,393.3,139.3 M394.4,140.4c0.1-0.1,0.2-0.1,0.3-0.2
		c-0.1-0.1-0.2-0.2-0.3-0.2c-0.1,0.1-0.2,0.2-0.3,0.3C394.2,140.3,394.3,140.3,394.4,140.4"/>
	<path class="st0" d="M284,356c0.2-1.5,1.7-1.7,2.7-2.3c7.1-4.4,14.4-8.7,20.8-14c8.1-6.7,12.9-16,17.8-25.2
		c-8.2,6.3-13.9,15-22.3,20.9c4.7-1.3,7.9-4.6,10.8-8.2c0.8-1.1,1.6-2.2,3-2.5c0.2,0.2,0.5,0.3,0.7,0.5c-1.2,3.7-4,6.2-6.7,8.5
		c-10.3,9-21.8,15.7-35.2,19.5c-11.3,3.2-22.8,2.3-34.2,3.5c-1.3,0.1-1.3,0-3.1-2c20.1-2.3,40.8-1.3,58.1-14.1
		c-7.9,3.2-16.2,5.3-24.5,7.3c-10.9,2.7-21.9,4.5-33.1,4.1c-0.7,0-1.6,0.2-1.8-0.8c-0.1-1.1,0.9-1,1.6-1c4.1-0.6,8.3-1.1,12.4-1.7
		c9.8-1.5,19.7-2.7,29.5-4.6c11.1-2.2,20.1-8.5,28-16.4c6.5-6.5,11.7-14.4,18.8-20.4c2.1-1.8,4.5-3.4,6-5.8c0.6-0.9,1.6-1.4,2.5-0.7
		c1.2,0.9,0.1,1.7-0.4,2.4c-2.6,3.9-5.3,7.7-5.9,12.8c-0.4,3.4-4.2,5.2-5.9,8.2c-0.9,1.5-2.3,2.7-2.7,4.6c2,0.5,1.9-1.5,2.9-2
		c0.7-0.3,1.4-0.8,2-0.3c0.7,0.6,0.3,1.3,0,2c-1.8,3.6-5.2,5.4-8,7.9c-8.9,7.6-19.7,12.4-29.3,19.1c-1.1,0.7-2.5,0.9-3.8,1.3
		C284.4,356.3,284.2,356.2,284,356"/>
	<path class="st0" d="M413.3,170.8c-0.1,0.8,0.9,2-0.2,2.6c-1,0.5-1.4-0.6-2-1.2c-7.3-6.2-14.6-12.4-22.1-18.4
		c-5-4-9.5-3.9-14.9-0.7c-9,5.4-17.7,11.3-26.9,16.2c-5.3,2.9-8.9,8-12.7,12.5c-12.1,14.2-25.7,27-39.9,39.1
		c-6.4,5.5-13.1,10.6-20.2,15.1c-1.2,0.7-2.8,2.6-4,0.6c-0.9-1.5-0.4-3.1,1.8-4.3c10.7-5.9,20.2-13.5,28.5-22.6
		c10.6-11.5,22.8-21.3,34-32.1c4.2-4,7.4-9,12.5-12.1c9.4-5.8,18.7-11.8,28.2-17.6c2-1.2,4.2-0.8,6.4-0.5
		c11.8,1.5,19.6,9.8,28.3,16.5C412.4,165.5,412.9,168.2,413.3,170.8"/>
	<path class="st1" d="M126.1,175.8c3-0.9,5-3.3,7.5-5c2.7-1.8,5.2-2.2,8.2-1.9c3,0.4,6.1,0.5,9.1,0.4c6.9-0.1,11.8,4.9,17.9,6.8
		c14.7,4.5,26.5,14.4,39.8,21.4c15,7.9,30.1,15.6,45.4,22.7c2,0.9,4.3,0.9,6.2,2.2c1.8,1.2,2.4,2.9,1.7,4.3c-0.8,1.8-2.4,0-3.4-0.4
		c-23.7-9.9-46.5-21.5-68.1-35.3c-7.1-4.5-14.9-7.7-22.5-11.4c-5.9-2.8-11.6-5.5-18.3-5.8c-12.8-0.6-23.1,3.4-29.4,15.2
		c-0.5,0.9-0.7,2.1-2.3,2.3c1-5.5,3-10.5,6.6-14.7l0,0C125.4,176.7,126,176.7,126.1,175.8L126.1,175.8z"/>
	<path class="st1" d="M115.5,213.1c-0.5-4.4-0.5-8.7,2.8-12.3c4.2-4.5,6.5-10.6,11.4-14.5c3.7-2.9,8-5.1,12.2-7.3
		c3.2-1.7,6.2,0.7,9.2,1.5c9.6,2.6,19.1,5.7,28.6,8.8c4.8,1.5,8.5,5,13,7.3c12.4,6.4,25,12.8,37.1,19.7c8.3,4.7,16.5,9.4,25.3,13
		c1.4,0.6,2.7,1.1,4.1,1.5c1.8,0.4,3.2,1.3,2.4,3.2c-0.7,1.7-2.4,0.5-3.5,0.1c-7.9-3.2-15.6-6.7-23.3-10.4
		c-16.1-7.7-31.3-16.8-46-26.8c-6.4-4.3-13.6-5.9-20.7-7.8c-6.1-1.7-12.1-3.6-18.2-5.4c-7.5-2.3-11.9-0.9-16.2,4.5
		c-5.9,7.5-10.8,15.7-16.3,23.4c-0.4,0.6-0.7,1.3-1,1.9L115.5,213.1z"/>
	<path class="st1" d="M129.4,262.7c-2.2-3.3-4.2-5.1-2.4-9.1c3.5-7.6,5.9-15.7,8.7-23.6c1.6-4.6,5.9-6.4,9.5-8.7
		c6.2-4.1,12.9-7.1,20.7-6.1c1.5,0.2,2.9-0.4,4.2-1.1c4.2-2.2,8.5-2.9,12.9-0.3c3.4,2,7.2,2.8,11.1,3.5c6.5,1.3,11.7,5.4,17.3,8.5
		c14.2,8,28.4,16.2,44.3,20.6c0.8,0.2,1.4,0.7,1.2,1.5c-0.2,0.9-0.8,1.5-1.9,1.1c-2.2-0.8-4.4-1.5-6.6-2.3
		c-14.3-5.7-28.2-12-41.9-19.1c-8.2-4.2-16.8-8.3-26-9.4c-9.3-1.2-19.3-1.6-27.3,4.3c-7.1,5.2-12.8,12.3-18.1,19.6
		C130.6,248,129.4,254.7,129.4,262.7"/>
	<path class="st1" d="M137.5,275.2c-2.5-2.8-4.8-5.3-4-9.6c0.8-3.8,1-7.7,1.4-11.6c0.4-3.9,3.2-6.5,5.3-9.4
		c4.2-5.8,8.6-11.4,12.7-17.3c2-2.8,4.8-3.4,7.7-3c6.4,0.8,12.9-0.2,19.4,0.7c2.9,0.4,5.9,0.7,8.6,1.8c5.1,2,10.4,3.5,15.7,5
		c4,1.1,7.5,3.1,10.7,6c3.2,2.9,7.3,4.6,11.5,5.4c8.9,1.6,16.4,6.6,24.7,9.7c0.8,0.3,2.6,0.3,1.6,2.1c-0.7,1.3-1.8,2-3.4,1.5
		c-1.1-0.4-2.3-0.9-3.3-1.5c-7.5-4.4-16.1-6.1-23.9-9.7c-8.7-4-17.4-8.1-26-12.3c-13.1-6.3-26.2-6.6-39.2,0
		c-6.7,3.4-10.4,9.7-14.6,15.5c-5.5,7.6-5.1,16-4.7,24.6C137.8,273.6,138.2,274.3,137.5,275.2"/>
	<path class="st0" d="M402.3,173.1c-8.6-4.7-18.2-4.2-27.5-4.5c-7.6-0.2-14.3,3.9-20.9,7.5c-11.4,6.1-18.4,16.8-27.1,25.7
		c-13,13.2-26.8,25.4-43.2,34.3c-5.5,3-10.6,6.9-16.4,10.7c0.8-4.2,2.5-6.2,6-7.8c15.1-6.9,28.6-16,39.1-29.3
		c7.1-9.1,16.6-16.1,25-24c4.2-4,7.9-8.2,11.4-12.8c1.7-2.3,3.8-3.8,6.7-4c5.1-0.2,9.7-2.1,14.5-3.7c11.7-3.9,22.4-1.2,32,6.3
		c0.3,0.3,0.4,0.9,0.6,1.3C402.5,172.8,402.4,173,402.3,173.1"/>
	<path class="st0" d="M393.8,269.9c-3.7-4.9-5.7-10.3-8-15.7c-2.3-5.7-7.2-10.6-12.5-14.5c-1.9-1.4-4.2-1.5-6.7-0.7
		c-9.3,2.7-16.6,8.5-23.9,14.3c-8.5,6.8-16.5,14-25.8,19.7c-4.7,2.9-9.7,5.2-15.5,5.2c-1.4,0-3.3,0.5-3.6-1.5
		c-0.4-2.2,1.6-2.7,3.1-2.9c5.4-0.7,9.8-3.4,14.4-6c6.6-3.8,12.3-8.8,18.6-12.9c4.2-2.7,8.6-5,12.9-7.6c2-1.2,3.9-2.5,4.8-4.8
		c3.6-8.9,9.3-9.7,16.8-8.8c4,0.4,7.8,1.7,11.4,3.7c5.8,3.1,7.5,9.1,10.2,14.3c2.2,4.2,4.5,8.5,4.8,13.4
		C394.9,266.8,395.1,268.4,393.8,269.9"/>
	<path class="st1" d="M127.1,208c1.4-4.2,4.2-5.9,6.7-7.6c8.7-5.9,18.4-7.7,28.7-6.1c2.8,0.4,5.4-0.2,8-0.7c2.5-0.5,4.8-0.1,6.6,1.4
		c9.9,8.2,21.5,13.3,32.8,19c8.9,4.5,16.7,10.8,25.7,15.4c6.9,3.5,14.1,5.9,21.5,7.7c0.7,0.2,1.4,0.3,2.1,0.5
		c0.9,0.3,1.7,0.6,1.2,1.8c-0.4,0.8-1.1,0.7-1.9,0.4c-6.5-2.1-13.2-3.7-19.5-6.2c-15.8-6.2-30.5-14.4-44.5-24.1
		c-12.1-8.3-25.7-12.4-40.4-12c-6.1,0.2-11.5,4.1-17.3,5.8C133.7,204.4,131,206.6,127.1,208"/>
	<path class="st0" d="M293.7,261.2c4.1-1.6,7-4.7,10.3-7.4c7-5.7,14.4-10.8,21.9-15.9c0.5-0.4,1-0.7,1.8,0c-0.4,1.3-1.2,2.4-2.3,3.3
		c-1.2,1-2.6,1.9-3.7,3c-1.1,1.2-3.5,2.3-2.6,3.8c0.9,1.5,2.8-0.3,4.2-0.8c7-2.8,14-5.8,21.1-8.4c2.2-0.8,3.4-3.4,6.4-2.9
		c-2.6,4.9-6.9,7.5-11.2,10.2c-6.8,4.2-14.5,4.3-22,5.1c-3.9,0.4-6.9,1.6-9.8,4.6c-8.6,8.8-19.2,15-29.8,21.1
		c-9.4,5.4-19.6,9.2-28.3,16c-3,2.4-6.8,4-11,4.4c0.9-4.3,3.2-6.6,7.2-7.6c2.2-0.5,4.3-1.8,6.1-3.2c6.8-5.4,15.2-7.8,22.7-11.7
		C281.7,271.2,288.4,267.1,293.7,261.2L293.7,261.2z"/>
	<path class="st0" d="M308.9,308.3c3.7-1,5.4-4.4,7.9-6.7c3.2-3,6.3-6.1,10.1-8.4c4-2.4,12.7-1.3,14.7,2.6c2,3.9,1.7,8.5,1.8,12.9
		c0.1,4.6-2.7,8.3-4.1,12.4c-4.2,12.8-10.9,24-20.8,33.4c-7.8,7.4-16.4,13.7-26.2,18.2c-2.5,1.2-4.2,3.3-6.8,4.3
		c-2.3,0.9-4.6,1.3-7.3,0.4c4.3-2.2,8.8-4.2,13-6.6c16.1-9.3,30.8-20.3,39.7-37.2c3.4-6.5,6-13.6,9-20.3c1.4-3,1.5-6.4,0.9-9.7
		c-1.4-7.6-9.7-10.5-15.8-5.6c-5.7,4.6-10.5,10.1-15.4,15.6c-8.1,8.9-18.2,14.2-29.8,16.7c-0.8,0.2-1.6,0.6-2.8-0.5
		c3.7-2.3,7.8-3.3,11.5-5.2c7.4-3.9,13.9-9,20-14.5C309,309.5,309.1,308.9,308.9,308.3L308.9,308.3z"/>
	<path class="st1" d="M237.7,279.2c-2.5,5.1-2.5,5.2-7.8,3c-10.9-4.5-21.8-9.2-32.7-13.7c-4.6-1.9-9.4-3.4-14.4-4
		c-8.8-1.1-10.9,0.1-14.8,8.3c-2.6,5.6-5.5,11-4.8,17.7c0.3,3-1.3,6.2-2.1,9.2c-0.5,1.7-1.3,1.3-2.2,0.2c-1.2-1.6-1.4-3.5-1.3-5.3
		c0.3-8.2,1.6-16.4,4.5-24c2.5-6.3,8.6-9.4,14.8-11.7c6.9-2.6,12.5-0.9,17,5.2c2.4,3.2,6.7,3.7,10.2,4.3
		C216,270.7,226.3,276.7,237.7,279.2"/>
	<path class="st0" d="M398.1,262.5c-1.6-2.2-1.3-4.4-1.8-6.4c-1.4-5.9-4.9-10.6-8.2-15.4c-0.7-1-1.4-2-1.8-3.1
		c-1.5-3.7-3.6-6.9-8-7.7c-1.7-0.3-2.6-1.8-3.6-3c-2-2.2-4.3-2.6-6.6-1.4c-4.4,2.3-9.2,2.8-13.9,3.1c-6.1,0.4-10.6,3.2-14.5,7.5
		c-2.1,2.3-4.3,4.3-7,5.8c-1.6,0.9-3.7,1.2-4.6-0.4c-0.6-1.1,1.1-2.3,2.3-3.2c3.8-2.7,7.7-5.6,11.2-8.7c8.7-7.8,19.3-9.4,30.4-9.7
		c5.5-0.1,9.6,2.8,12.5,7.2c3.7,5.7,8.8,10.1,12.7,15.6c2,2.8,3.4,5.9,4.6,9.1c0.6,1.6,0.4,3.1-0.4,4.6
		C400.2,258.4,399.2,260.3,398.1,262.5"/>
	<path class="st0" d="M293.7,261.2c-3.5,1.2-6,4-9.2,5.9c-8.2,5-17.5,6.7-26.4,9.9c-2.5,0.9-4.5,3.1-7.5,2.9
		c4.4-3.9,7.9-9.1,14.1-10.3c12.1-2.3,22.3-8.3,31.6-16.1c10.6-8.8,21.4-17.2,32.2-25.8c5-4,10.1-8.1,15.2-12.1
		c1.1-0.8,2.1-1.7,3.2-2.4c2.2-1.5,5-2.4,6.7-0.3c1.6,2-1.3,3.6-2.7,4.8c-5.8,5-12.2,9.3-18.8,13.2c-12.6,7.4-23.7,16.6-34.4,26.4
		C296.5,258.5,294.3,259,293.7,261.2L293.7,261.2z"/>
	<path class="st0" d="M282.7,194.7c-1.2-1.8-0.3-2.9,0.7-4.3c13.1-17.1,27-33.5,41.4-49.5c6.1-6.8,12.8-12.9,17.2-21.2
		c2.1-3.9,7.3-5.1,10.8-7.8c2.5-1.9,4.3-0.8,6.3,0.1c1.3,0.6,1.2,1.6-0.1,2c-6.2,2-9.6,7.3-13.7,11.8c-13.2,14.4-25.6,29.6-40,43
		c-6.5,6.1-10.9,13.9-16.9,20.5C286.8,191.2,285,193.2,282.7,194.7"/>
	<path class="st0" d="M346.4,287.6c-2.6-4.4-9.8-5.4-13.8-2.1c-4.3,3.6-8.6,7.1-13.3,10.3c-5.8,4-12.5,6.6-18,11.2
		c-4.6,3.8-9.7,6.9-14.9,9.8c-1.3,0.7-2.4,1-4.2,0.3c2.8-3.4,6.5-5.2,9.7-7.5c11.8-8.4,23.6-16.8,35.5-24.9
		c3.3-2.2,6.9-4.5,10.6-5.5c9.8-2.5,20.8,8,19.6,18.1c-1.2,10.7-5.1,20.7-7.8,31c-0.9,3.5-2.1,7-2.8,10.5c-0.6,3.6-3.1,6-4.6,9
		c-0.4,0.7-1.2,0.8-2.1,0.5c3.2-9.1,6.5-18.1,9.5-27.2c2.4-7,4.9-14,5.2-21.5C355.3,294.9,350.8,288.6,346.4,287.6L346.4,287.6z"/>
	<path class="st1" d="M247.7,198.9c-2.5-0.1-4.6-1.4-6.3-2.7c-15.7-12.6-33.7-21.6-50.4-32.6c-9.3-6.1-18.8-11.9-27.9-18.3
		c-2.5-1.8-5.5-2.7-8.4-3.7c-1-0.3-3.1,0.6-2.6-1.4c0.3-1.2,1.8-3.1,3.5-2.6c6.3,1.9,13.1,2.1,18,7.8c4.3,4.9,10.6,7.7,16,11.3
		c11.5,7.6,23.4,14.6,34.5,22.7c7,5.2,13.9,10.5,21,15.6C246.4,196,247.7,196.9,247.7,198.9"/>
	<path class="st1" d="M154.3,294.9c-8-6.7-7.1-11.4-3.2-21.4c2.4-6.2,5.8-12,8.1-18.3c2-5.4,6.8-7.5,11.9-8.8
		c7.2-1.8,14.6-1.7,21.9-0.6c4.7,0.7,8.5,3.6,12.7,5.5c3.6,1.7,7.7,2.3,11.3,4.9c-3.9,2.9-7.4,0.9-10.7-0.5c-2-0.9-3.6-2.4-5.5-3.4
		c-3.2-1.6-6.4-2.7-10.2-2c-5.8,1-11.6,2.1-17.5,1c-2.4-0.4-4.2,0.5-5.3,3c-0.6,1.4-1.5,3.1-2.8,3.8c-4.2,2.2-5.2,6-6.1,10.2
		c-0.8,3.7-2.1,7.2-3.3,10.8C153.8,284.1,154.3,289.2,154.3,294.9"/>
	<path class="st0" d="M370.9,308.3c-0.1-3.1-0.6-6.2-0.2-9.3c0.9-8.2-0.7-15.7-5-22.8c-3.2-5.2-8.3-4.9-13.1-5
		c-7.7-0.2-13.9,3.8-20,8c-8.7,6-17.5,11.9-26.3,17.9c-0.9,0.6-2.2,1.4-3,0.6c-1.1-1.1,0.3-1.7,1.1-2.5c4.6-4.9,10.3-8.5,15.9-12.1
		c8-5.1,15.9-10.6,24.6-14.7c4.9-2.4,10.1-2.8,15.3-2.5c7.3,0.4,10,6.4,12.4,12c2.9,6.9,4.2,14.2,2.4,21.8
		C374.2,302.7,372.6,305.4,370.9,308.3"/>
	<path class="st0" d="M416,211.2c-3.9-5.4-7.7-10.7-12.1-15.5c-10.7-11.4-23.1-16.3-38.6-11.3c-2.2,0.7-4.6,0.9-6.9,1.3
		c-1.4,0.2-3,0.3-3.3-1.4c-0.4-1.7,0.9-2.6,2.4-3.2c2.9-1.1,5.8-2,8.8-2.5c6.8-1,13.7-1.3,20.5-1.4c4.3-0.1,7.8,2.7,11.2,5
		c6.6,4.6,12.4,10,17.4,16.4C418.8,203.2,416.4,207,416,211.2"/>
	<path class="st0" d="M381,292c-3.1-6.9-4-14-6.4-20.5c-3.1-8.2-6.2-10.6-17.1-9.8c-9.3,0.6-17.4,4-24.2,10.6
		c-2.2,2.2-5.3,3.5-8.3,4.6c-0.9,0.3-2.2,1-3-0.3c-0.7-1.2,0.7-1.7,1.3-2.3c0.6-0.6,1.2-1.3,2-1.6c3.4-1.3,6.3-3.3,8.8-5.8
		c2.4-2.5,5.3-4.1,8.7-5.2c4-1.3,7.9-3.1,11.8-4.8c7.4-3.1,16.2-1.2,22.1,4.4c2.2,2.2,3.4,4.9,4.2,7.6c1.3,4.7,1.9,9.6,3,14.4
		C384.6,286.6,383.3,289.2,381,292"/>
	<path class="st0" d="M346.3,287.6c6.8,5.9,5.1,13.7,4.4,21.2c-0.4,4.7-2.6,8.8-4.3,13.1c-2.3,5.8-2.8,12.1-5.4,17.8
		c-4.1,9.1-10.7,16.2-18.8,22c-4.2,3.1-8.5,6.1-12.2,9.6c-2.4,2.2-5.4,1.9-8,3.7c-0.2-2.1,1.3-2.6,2.3-3.5
		c6.2-5.1,12.7-9.9,18.7-15.2c7.1-6.1,12.6-13.1,14.7-22.8c1.8-7.9,5.4-15.4,8-23.1c0.9-2.5,1.5-5.1,2.1-7.7c0.4-1.6-0.1-2.8-1.7-4
		C342.8,296.2,343,289.8,346.3,287.6L346.3,287.6z"/>
	<path class="st1" d="M178.4,318.9c-2.8-2.4-5.3-4.5-5.1-8.2c0.3-5.3-0.8-10.5-0.5-15.7c0.7-10.5,12.3-17.5,20.7-16.7
		c5.8,0.5,11.5,2.2,17.4,1.9c1.3-0.1,2.7,0.5,3.8,1.2c4,2.4,8.2,4.2,12.9,4.8c0.8,0.1,1.6,0.7,2.3,1.1c0.7,0.3,1.4,0.7,1.1,1.7
		c-0.3,0.9-1.1,0.9-1.8,0.9c-3.3,0.2-6.4-0.7-9.2-2.2c-9.9-5.4-20.3-6.1-31-3.4c-8,2-10.5,6.9-10.6,15.7
		C178.4,306.1,178.8,312.3,178.4,318.9"/>
	<path class="st1" d="M123.6,250.6c-6.7-9.2-1-16.3,3-23.5c1.7-3.1,4.1-5.8,6.1-8.7c4.8-6.9,11.9-9.4,19.7-10.4
		c6.1-0.8,12.1-2.3,18.3-1.9c1.9,0.1,4.1,0,4.2,2.4c0,2.4-2.4,2.1-4,2.2c-4.5,0.4-9.1,0.2-13.5,0.8c-12.3,1.8-20.2,9.6-25.9,20
		C128.1,237.5,125.5,243.7,123.6,250.6"/>
	<path class="st0" d="M238.8,306.4c-1.5,0-3.3,0.5-3.5-1.2c-0.1-1,0.6-2.9,2.2-3c8-0.5,13.6-5.9,19.7-9.8c7.2-4.6,15-7.7,22.5-11.5
		c7.3-3.7,14.4-7.7,20.4-13.4c4.2-4,9.5-5.9,14.2-8.9c3.1-2,6.5-3.3,9.5-5.4c0.6-0.4,1.3-0.9,2-0.3c0.8,0.7,0.4,1.6-0.3,2.2
		c-3.4,3-6.2,6.9-11.1,7.9c-8,1.5-13.9,6.9-19.8,12c-8.6,7.4-18.7,12-28.8,16.6c-5.9,2.7-11.1,6.6-16.5,10.1
		C246,303.8,242.5,305.6,238.8,306.4"/>
	<path class="st0" d="M267.6,343.7c-4.3,0.5-7.7,0.9-11.2,0.9c-5.8,0-11.4,1.1-16.9,3.1c-1.6,0.6-5,2.4-5.5-0.8
		c-0.5-2.9,3-2.1,4.7-2.3c14.9-2.2,29.7-5,44.6-7.6c8.7-1.5,14-7.8,19.9-13.3c7.5-7,15-14.2,22.4-21.3c0.8-0.8,1.9-1.9,2.8-0.9
		c1,1-0.2,2.1-1,2.7c-10.8,8.8-18.3,20.8-29.1,29.5c-4.8,3.8-9.9,7.1-16.4,7.4C276.7,341.4,271.9,343.6,267.6,343.7"/>
	<path class="st1" d="M191.4,331.4c-4-3.6-5.7-7.7-7.1-11.9c-2.6-8.1-1.9-16.2,0.7-24.1c1.3-3.9,4.4-6.1,8.4-7.4
		c9.7-3.3,18.4,1.1,27.4,2.9c2.4,0.5,4.8,1,7.1,1.6c1,0.3,3-0.1,2.5,2.1c-0.5,1.8-1.4,2.1-3.3,1.5c-5.6-1.9-10.9-4.9-17-5.3
		c-5.7-0.3-11.3,0.3-16.5,2.8c-3.6,1.8-5.3,5.3-5.8,9.3c-0.9,7.9,0,15.6,2.8,23.1c0.3,0.9,0.5,1.9,0.7,2.9
		C191.4,329.4,191.3,330,191.4,331.4"/>
	<path class="st0" d="M239,315.3c8.9-0.4,15.5-4.5,22.2-8.3c7.2-4.1,14.7-7.6,22.2-11.2c4.7-2.3,9-5.4,12.6-9.2
		c2.2-2.3,4.4-3.8,7.5-4.8c4.1-1.3,8-3.6,11.9-5.4c0.8-0.4,1.8-1.3,2.5-0.1c0.7,1.1-0.5,1.6-1.1,2.4c-1.3,1.9-3.5,2.2-5.3,3.1
		c-11.4,5.1-21.6,12.2-31.5,19.8c-4.5,3.5-10,5-14.9,7.7c-9.8,5.3-20.3,8.3-31.1,10.6c-0.8,0.2-2.1,1.3-2.4-0.3
		c-0.2-1.2-0.5-3.1,1.6-3.5C235.5,315.7,237.7,315.5,239,315.3"/>
	<path class="st0" d="M335.1,318.4c-0.6,5.1-3.9,8.9-6.4,13c-4.4,7.3-9.6,14.1-15.1,20.6c-4.7,5.5-11,9.2-16.9,13.2
		c-6.5,4.4-13.4,8.5-20.7,11.4c-4.7,1.9-5.3,1.7-10.1-0.5c3-2.6,7-2.6,10.5-3.9c5.8-2.2,12.1-3.7,16.7-7.9
		c7.5-6.6,15.4-12.7,22.2-20c6.9-7.4,12.4-15.9,17.5-24.5c0.4-0.7,0.8-1.5,1.6-2C334.6,318,334.9,318.2,335.1,318.4"/>
	<path class="st0" d="M365.4,290.6c0.7,9-0.9,17.4-3.8,25.4c-1.2,3.2-2.6,6.3-3.3,9.6c-0.5,2.6-2.1,4.6-3.4,6.8
		c-0.4,0.6-1,1.2-1.8,1c-1.1-0.3-0.8-1.5-0.7-2.2c0.2-2.2,1-4.3,1.6-6.3c2.7-8.5,3.8-17.5,7-25.9c2.6-7.1-1.7-15.9-8.8-19.5
		c-0.9-0.4-2.6-0.7-1.9-2.5c0.6-1.6,4.5-3.4,5.8-2.7c0.5,0.3,1,0.7,1.5,1.1C359.9,277.7,365.1,287.9,365.4,290.6"/>
	<path class="st1" d="M187.4,233.9c3.2-0.3,5.9,1.6,8.6,2.7c13.9,5.8,27.7,12,41.6,18c3.2,1.4,6.6,2.4,9.8,3.8c1,0.5,3.2,0.7,2,3
		c-1.1,2.1-2.3,1-3.6,0.4c-6.9-3.1-13.4-6.9-20.6-9.4c-11.1-3.7-22.2-7.4-33.2-11.2c-1.9-0.7-3.9-1.5-5.6-2.7c-1-0.6-3-1-2.5-2.7
		C184.1,234.5,185.8,234.1,187.4,233.9"/>
	<path class="st1" d="M210.4,305.9c-4.7,3-6.7,11.7-3.9,17.3c5.8,11.5,13.1,22,20.9,32.2c1.9,2.5,3.7,5.1,5.6,7.6l0,0.1
		c-6.1-1.8-8.8-6.9-11.8-11.8c-4.3-7.1-8.4-14.2-12.8-21.2c-2.9-4.6-5.2-9.4-6.9-14.5c-2.4-7.1,2.5-11.4,6.5-16
		c3.1-3.5,6.9-4.4,11.5-3.2c2.3,0.6,4.8,0.7,7.2,1.2c0.8,0.1,2,0.3,1.8,1.4c-0.2,0.9-0.8,1.8-1.4,2.5c-0.9,1.1-1.3-0.1-1.9-0.6
		C218.9,296.3,212.6,300.6,210.4,305.9L210.4,305.9z"/>
	<path class="st0" d="M302.1,291.7c-0.8,3.1-3.4,4.7-5.6,6.4c-11.1,8.6-22.4,16.9-35.4,22.3c-8.8,3.7-17.8,7.1-27.7,5.6
		c-1-0.2-2.3,0.3-2.6-1.3c-0.3-1.9,1.2-1.8,2.4-2c4.1-0.6,8.3-1.3,12.4-1.6c10.5-0.7,19.3-5.5,27.8-11.3
		c8.6-5.9,17.7-11.1,25.9-17.7C300,291.5,300.9,291.1,302.1,291.7"/>
	<path class="st1" d="M216.7,352c-5.3-2.1-7.1-6.7-9.8-10.6c-3.8-5.4-7.5-10.8-10.3-16.8c-2.1-4.6-3.4-9.3-3.3-14.2
		c0.1-4.6,1.7-9.1,3.4-13.3c0.9-2.3,5.1-2.3,6.6-0.4c1,1.3-0.1,1.9-0.7,2.4c-4.8,3.4-4.9,8.8-5.9,13.7c-0.4,2,0.3,3.9,1.5,5.9
		c6.2,10.4,12.1,20.9,18,31.4C216.5,350.5,216.5,351,216.7,352"/>
	<path class="st0" d="M350.7,53.5c-3.9,1-6.2,4.5-9.6,6.4c-0.8,0.5-1.4,1.3-2.5,1c-0.6-1.8,1-2.7,1.8-3.3c3.5-2.7,6.3-6.3,10.7-8
		c2.7-1.1,5.2,0.5,7.8-0.2c0.2-0.1,0.7,0.3,0.7,0.6c0.2,1-0.5,1.4-1.3,1.9c-3.9,3-7.9,6.1-10.9,10.2c0,0.1-0.1,0.2-0.1,0.2
		c0-0.1,0.1-0.2,0.1-0.3c5-2.4,8.5-6.8,13.2-9.7c1.6-1,2.6-1.4,3.6,0.1c1.1,1.6-0.9,2.4-1.6,2.7c-9.7,5-17.1,13.3-26.4,18.8
		c-0.8,0.5-1.5,1.6-2.6,0.8c-0.8-0.6-0.2-1.6-0.1-2.4c0.4-4.3,3-6.9,6.3-9.3C343.8,60.2,348.3,58,350.7,53.5c0-0.1,0.1-0.1,0.2-0.2
		c0,0,0-0.1,0-0.2C350.9,53.2,350.8,53.4,350.7,53.5 M345.3,64.2l0.2,0.1l0-0.1L345.3,64.2z"/>
	<path class="st1" d="M170.9,311c-3.1-1.9-5.5-4.2-5.4-8c0.3-6.9-0.6-13.9,1.5-20.7c2.9-9.5,11-14.8,20.7-13.4
		c0.9,0.1,1.8,0.7,2.7,1.1c1.3,0.5,2.6,1.3,2.3,2.9c-0.3,1.9-2.1,1.4-3.3,1.4c-1.9-0.1-3.9-0.2-5.8-0.8c-2.6-0.7-4.5,0.4-5.8,2.2
		c-2.7,4-5.5,8.1-7.5,12.5c-3,6.7-1.6,13.7-0.1,20.5C170.4,309.4,170.7,310.2,170.9,311"/>
	<path class="st0" d="M357.8,214.2c2.7-4.6,6.4-5.6,11.2-4.3c7,1.8,14.4,2.7,20.2,7.2c9.5,7.3,16.6,16.2,16.3,29
		c0,1.1,0.2,2.3-1.8,2.8c-0.4-4.1-2.1-7.8-3.7-11.5c-4-9-9.8-15.4-19.3-19.7c-7.5-3.4-14.2-5-22-3.1
		C358.5,214.6,358.3,214.4,357.8,214.2"/>
	<path class="st0" d="M386.1,282.7c-0.2-5.8-0.6-10.8-1.8-15.6c-1-3.9-3.1-7.1-6.1-9.7c-1.3-1.1-2.5-2.3-3.6-3.6
		c-4.3-5.1-9.1-6.6-15-2.5c-0.7,0.5-1.6,0.6-2.4,0.8c-0.8,0.2-1.8,0.3-2.2-0.7c-0.4-0.8-0.1-1.7,0.4-2.4c2.7-4.2,12.7-6.4,16.9-3.6
		c3.5,2.3,6.6,5,9.8,7.6c3.3,2.7,3.3,7,4.8,10.5c1.5,3.5,2.2,7.5,2.8,11.4C389.9,277.9,388.2,279.9,386.1,282.7"/>
	<path class="st0" d="M309,308.2c-4.5,3.2-9,6.6-13.6,9.6c-4,2.6-8.1,5.1-13.1,5.3c-1.9,0.1-3.7-0.3-4.3-2.1
		c-0.8-2.4-2.3-1.9-3.7-1.1c-6.1,3.8-13,6.1-19.5,8.9c-4.5,2-10.2,3.2-15.6,2.8c-2.1-0.2-4.2,0.1-6.2,0.2c-0.9,0-2.2,0.5-2.4-0.9
		c-0.3-1.4,1-1.5,1.9-1.6c2.1-0.2,4.3-1,6.2-0.5c5.4,1.4,10-0.9,14.5-2.7c7.4-2.9,14.5-6.4,21.4-10.4c2.3-1.3,4.6-2.6,5.4,1.5
		c0.2,0.9,0.7,1.4,1.5,1.1c5.3-1.4,11.2-0.3,15.7-4.3c3.4-3.1,6.6-6.5,10.7-8.7c0.9-0.5,1.7-2,2.6-1c1,1.1-0.7,1.8-1.1,2.7
		C309.2,307.6,309.1,307.9,309,308.2L309,308.2z"/>
	<path class="st1" d="M144.5,284c-3.3-4-3.5-8.3-3-12c1.2-8.8,3.8-17.3,10-23.9c5.7-6,13-9.8,20.5-13c3.5-1.5,5.4,1.3,8.1,3.3
		c-12.7-1.6-20,7-27.2,14.6C145.4,261.2,145,272.3,144.5,284"/>
	<path class="st1" d="M150.1,88.5c-3.5-3.5-8.2-5.1-12.6-6.9c-0.7-0.3-1.9-0.1-1.9-1.2c-0.1-1.5,1.4-1,2.1-1.4
		c8.6-4.2,14.3,2,20.7,5.7c-5-0.5-9.4-2.8-14.6-4.5c1.8,4,5.3,4.3,8.1,5.3c3.7,1.3,7.2,3,10.6,4.7c2.8,1.4,4.2,3.9,4.1,7.6
		c-6.5-2-12.8-4-18.6-6.9c-4.5-2.3-9.3-3.5-14-5.1c-1-0.3-3.2,0.2-2.6-2.1c0.6-2,1.9-1.5,3.5-0.9c4.4,1.6,8.9,3.2,13.1,5.5
		C148.5,88.6,149.4,88.5,150.1,88.5c0.4,1.4,1.5,1.6,2.9,1.7C152.5,88.4,151.3,88.4,150.1,88.5 M156.9,91.7
		c-0.3-1.2-1.1-1.5-2.1-1.3c-0.1,0-0.3,0.4-0.2,0.5C155,91.9,155.7,92.3,156.9,91.7"/>
	<path class="st0" d="M239.7,312.3c-1.3,0.2-2.7,0.4-4,0.5c-1.1,0.1-2.3,0.1-2.3-1.5c0-1.4,0.6-2,1.9-2.2c7.5-0.8,14.3-4,21.1-7.1
		c6.7-3.1,12.9-6.8,19.2-10.5c5.2-3.1,10.3-6.4,15.5-9.6c1.1-0.7,2.7-1.5,3.7-0.3c1,1.3-0.4,2.5-1.3,3.5c-2.7,2.8-6.3,4.2-9.7,5.9
		c-10.2,5.1-20,11-29.9,16.6C249.5,310.1,244.8,311.8,239.7,312.3"/>
	<path class="st1" d="M193,256.9c11.3,3.1,22.8,3.1,35.1,4.7c-3.3-5.1-8.9-4.8-12.6-8.9c5.6,0.4,9.7,2.8,14,4.3
		c5.1,1.9,10.2,4.1,15.2,6.2c1,0.4,3.1,0.4,1.8,2.6c-0.9,1.4-1.8,2.3-3.5,0.9c-5.5-4.4-11.6-4.6-18.2-3c-9.4,2.3-18.7,1.6-27.4-3
		C195.7,259.8,194.1,258.8,193,256.9"/>
	<path class="st0" d="M268.9,196.9c-1.5,0.3-3.1,0.9-4-1.2c-0.8-2.1,1.1-2.7,2.1-3.9c0.2-0.3,0.6-0.5,0.9-0.6
		c9.1-2.7,13.6-10.2,18.4-17.3c4.4-6.4,10.1-11.4,16.9-15.1c0.6-0.3,1.3-1,1.9-0.3c0.5,0.5,0.2,1.3-0.3,1.6
		c-7.3,4.1-9.9,12.1-15.1,17.9c-5.6,6.4-11.5,12.5-17.8,18.2C270.8,197.2,269.8,196.3,268.9,196.9"/>
	<path class="st1" d="M212.4,153.8c0.3-2.4-1.7-3.6-3-4.7c-4.7-3.7-7-9.2-10.9-13.4c-4.2-4.5-6.2-10.8-11.6-14.2
		c-0.9-0.6-0.5-1.1-0.3-1.4c0.7-1.2,1.7-0.7,2.5-0.1c3.2,2.7,6.2,5.5,9,8.6c4.8,5.2,7.9,11.7,13.2,16.6c3.8,3.5,7.4,7.1,11.1,10.6
		c0.3,0.3,0.6,0.5,0.8,0.8c1,1.5,3.1,3.4,1.8,4.7c-1.6,1.7-3.1-1-4.5-1.9C217.7,157.6,216.1,154.2,212.4,153.8L212.4,153.8z"/>
	<path class="st0" d="M293.9,329.5c-4.6,5.7-11.1,6.8-16.6,5.8c-7.8-1.4-14.4,1.7-21.4,3.1c-7.1,1.5-14,3.3-21.2,4.3
		c-0.9,0.1-2.2,0.6-2.4-0.8c-0.2-1,0.9-1.2,1.8-1.5c12-3.4,23.9-6.7,35.9-10.1c1.3-0.4,2.7-0.3,3.6,0.4c3.6,2.9,7.1,1.2,10.7,0.2
		C287.2,330.2,290,328.5,293.9,329.5"/>
	<path class="st0" d="M304.4,141.5c2.3-1.3,2.9-3.8,4.1-5.8c0.7-1.1,1.2-2.1,2.4-1.5c1.1,0.5,0.6,1.7,0.3,2.6
		c-2.3,6.6-6.5,12.2-10.3,18c-2.6,4-5.4,7.3-10.3,9.2c-3.3,1.3-5.3,5.5-8.4,7.8c-6.3,4.6-11.9,10-16.3,16.5c-0.5,0.7-1,1.1-1.8,0.7
		c-0.7-0.4-1.6-0.8-1.8-1.7c-0.3-1.2,0.8-1.3,1.4-1.8c12-11.4,25.2-21.4,35.6-34.4C301.6,148.2,303.7,145.1,304.4,141.5L304.4,141.5
		z"/>
	<path class="st0" d="M304.5,141.5c-3.4,2.5-4.8,6.6-8,9.3c-0.8,0.7-1.5,2.3-2.6,1.6c-1.3-0.8-0.1-2.1,0.3-3.2
		c1.7-4.9,4.9-9,7.5-13.3c3.4-5.7,6.3-11.6,8.1-17.9c1.6-5.7,5.6-9.9,7.8-15.2c0.6-1.4,2-1,3.7-1.1c-2.9,5.3-5.2,10.5-7.2,15.7
		c-3,7.5-5.2,15.4-9.6,22.3C304.3,140.2,304.5,140.9,304.5,141.5L304.5,141.5z"/>
	<path class="st0" d="M263.2,150.7c0.4-4.9,2.6-7.8,4.9-10.3c7.5-8.2,13.1-17.8,19.9-26.5c1.9-2.4,3.6-4.9,5.6-7.2
		c0.8-0.9,2.2-1.7,3.3-0.9c1.3,1,0,2.1-0.7,3.1c-7.5,10.7-14.5,21.7-22.9,31.8C270.5,144,267.6,147.4,263.2,150.7"/>
	<path class="st1" d="M211.8,165.5c0.2,0.9,0.3,1.5-0.3,1.6c-0.4,0.1-1-0.1-1.3-0.3c-2.4-2.2-4.9-4-6.2-7.4
		c-1.9-4.8-6.1-8.5-10.3-11.1c-5.3-3.3-9.5-7.8-14.5-11.3c-3-2-5.9-4.3-8.8-6.4c-0.9-0.6-2.4-1.3-1.5-2.3c0.9-1,2.1-2.8,4.3-1.5
		c5.2,3.2,9.7,7.2,14.1,11.3c8.2,7.8,16,16,23,24.9C210.8,164,211.4,165,211.8,165.5"/>
	<path class="st0" d="M309.3,154.5c-1.6-0.9-1-2.1-0.6-3.1c2.2-5,4.3-10.1,6.8-14.9c5.4-10.5,11.6-20.5,18.4-30.1
		c1.8-2.6,3.9-2.5,6.1-1.1c1.9,1.1-0.1,2-0.6,2.7c-6.4,8.2-13.1,16.2-19,24.8c-3,4.4-6,8.8-6.5,14.5
		C313.6,149.9,311.6,152.4,309.3,154.5"/>
	<path class="st0" d="M261.8,168.9c-0.2-1.7,0.5-3,2-4.3c8.1-6.8,16.8-12.9,23.9-20.8c1.9-2.1,3.4-4.4,4.9-6.7
		c0.8-1.3,2.1-3.1,3.7-2.2c1.9,1.1,0.9,3.1,0,4.6c-3.7,5.6-8.6,10.2-13.6,14.7c-6,5.5-12.2,10.8-18.7,15.7c-0.6,0.5-1.1,1.1-1.9,0.7
		C261.5,170.4,261.7,169.7,261.8,168.9"/>
	<path class="st1" d="M253.5,150.7c-5.6-1.7-10-5.3-14.7-8.6c-9.4-6.8-18-14.5-26.7-22.1c-0.3-0.3-0.6-0.7-0.9-1.2
		c2.3-1.3,4-0.4,5.7,0.9c9,7.3,18.1,14.5,27.2,21.7c2,1.6,4.2,2.9,6.2,4.4c1.6,1.2,3,2.5,3.4,4.6
		C253.7,150.5,253.6,150.6,253.5,150.7"/>
	<path class="st1" d="M257.4,194.5c0,0.8,0.6,1.8-0.4,2.3c-0.8,0.4-1.4-0.2-2-0.6c-10-6.1-20.4-11.6-29-19.8
		c-2.2-2.1-4.8-3.8-7.9-4.2c-0.9-0.1-1.9-0.6-1.7-1.5c0.4-1.4,1.5-0.8,2.4-0.4c9,3.4,17.7,7.1,24.6,14c3.2,3.2,6.7,6,11.4,6.8
		C256.6,191.4,257.3,192.7,257.4,194.5"/>
	<path class="st0" d="M306.1,104.5c-0.1,0.2-0.1,0.6-0.3,0.9c-4.3,7.6-7.3,16-13,22.6c-3.1,3.6-6.4,7.1-9.1,11.1
		c-0.8,1.2-2.3,1.7-3.5,0.8c-1.1-0.8-1-2.2-0.4-3.3c0.4-0.7,0.9-1.5,1.5-2.1c8.8-8.3,14.4-19,20.5-29.2c0.7-1.2,1.7-1.7,2.9-1.8
		C305.5,103.5,306.1,103.5,306.1,104.5"/>
	<path class="st0" d="M308.3,345.6c-1,3.1-3.4,4.3-5.4,5.8c-8.1,6.5-17,11.8-26.5,16c-5.4,2.4-10.9,4.8-17,5.4
		c-2.3,0.2-4.1,0-5.4-2.1c1.6-1.2,3.3-0.2,4.8-0.2c5.3,0,9.8-2.4,14.2-4.7c10.6-5.5,20.6-12.1,30.6-18.6
		C304.9,346.5,306.3,345.8,308.3,345.6"/>
	<path class="st1" d="M200.8,117.9c2.1-0.9,3.4-0.7,4.9,0.8c4.9,4.9,10.1,9.5,15.1,14.3c3.3,3.1,7.6,4.7,11.2,7.5
		c1.8,1.4,5.3,2.9,3.2,5.5c-2,2.5-4.2-0.7-5.6-2.1c-4.1-4.3-10-5.8-14.1-10.1C210.7,128.5,205.7,123.5,200.8,117.9"/>
	<path class="st0" d="M278.8,79c2.8-1,5.5-2,8.3-3c0.6-0.2,1-0.7,1.5-1c1.4-0.8,3.6-1.9,4.2-0.6c1,1.9-1.6,2.3-2.8,3
		c-4.5,2.7-9.6,2.7-14.6,3.3c-0.8,0.1-1.8,0.4-2.1-0.8c-0.2-1,0.7-1,1.3-1.4c1.2-0.8,2.4-1.7,3.4-2.7c3.4-3.3,8.6-3,11.9-6.7
		c5.1-5.8,12.2-6.6,19.4-6.4c2.6,0.1,9,6,9.4,8.4c0.1,0.7,0.1,1.6-0.7,1.9c-1,0.4-1.7-0.3-2.1-1.1c-1.1-2.5-3.3-3.5-5.4-5
		c-2.3-1.6-4.2-1.6-6.4-0.9c-2.6,0.8-5.2,1.4-7.9,1.8c-3.6,0.4-5.6,3.3-8,5.4c-1.4,1.2-2.7,2.3-4.9,1.9c-2.6-0.5-3.5,1.9-5,3.2
		C278.6,78.4,278.7,78.7,278.8,79"/>
	<path class="st1" d="M212.4,153.8c3.3,4.8,7.4,8.8,12.3,11.7c6,3.5,12.3,6.4,18.3,9.8c2.9,1.6,6.1,2.9,9.1,4.4
		c0.9,0.4,1.6,1,2.4,1.6c0.6,0.4,0.8,0.9,0.4,1.5c-0.5,0.8-1.1,0.1-1.5-0.2c-6.6-4.3-14.5-6.2-20.9-10.9c-0.5-0.4-1.4-0.5-2-0.6
		c-11.6-2.8-18-12.1-25.4-20.2c-0.6-0.7-1.3-1.5-0.5-2.7C208.1,148.9,208.9,153.2,212.4,153.8L212.4,153.8z"/>
	<path class="st1" d="M210.5,305.8c3.5,0.9,5.7,7.5,3.2,10.4c-1.8,2.1-1.4,3.5-0.3,5.5c2.7,4.8,5.8,9.3,9,13.8
		c2.5,3.6,1.9,8.3,3.3,12.5c-2.6-7.4-9.2-11.9-12.5-18.7C209.5,321.8,206.8,314.2,210.5,305.8L210.5,305.8z"/>
	<path class="st1" d="M219.5,145.3c1.1,0.2,2.2,0.3,3,1.1c7.9,7.6,18,11.3,27.7,15.8c1,0.5,2,0.9,2.9,1.6c1.4,1.1,0.6,2.6,0.1,3.7
		c-0.7,1.3-1.4-0.2-2-0.4c-9.2-3.9-18-8.5-26.5-13.7c-2.2-1.4-4-3.2-5.8-5C217.8,147.3,217.4,145.9,219.5,145.3"/>
	<path class="st0" d="M327.2,133.1c-1.4-0.2-1.4-1-1-1.9c1.1-2.4,1.8-5.1,3.3-7.2c4-6,8.3-11.7,13.7-16.6c2.1-1.9,3.9-0.6,5.2,0.3
		c1.8,1.2-0.4,2.4-1.1,3.1c-6.3,7.1-12.7,14.1-19.1,21.1C327.9,132.2,327.5,132.7,327.2,133.1"/>
	<path class="st1" d="M223.9,74.3c-2.5,0.2-4.5-1.2-6.4-2.4c-6.4-3.9-13.2-7.2-20.3-8.9c-7.5-1.8-15.4-1.5-21.4,5
		c-0.7,0.8-1.6,1.5-2.4,2.3c-0.2,0.2-0.6,0.3-0.9,0.5c-1-4.5,0.4-6.9,4.9-8.2c1.8-0.5,3.5-1,5.3-1.5c8.5-2.3,16.6-1.2,24.3,2.6
		c5.5,2.8,10.9,6,16.2,9c0.4,0.2,0.6,0.7,0.9,1.1C224.1,74.1,224,74.2,223.9,74.3"/>
	<path class="st0" d="M277.2,71.5c-2.2,0.2-3.8,3.7-6.7,1.1c6-2.4,9.4-7.8,14.2-11.6c7.3-5.8,15.4-10.2,24.6-12.4
		c1-0.2,2-0.5,2.9,0.1c3,1.9,5.9,3.7,8.7,5.8c0.7,0.5,1.6,1.5,0.9,2.5c-0.9,1.1-1.7,0.1-2.5-0.4c-9.8-5.7-16.8-5.1-25.9,0.9
		C287.3,61.4,282.6,66.9,277.2,71.5L277.2,71.5z"/>
	<path class="st0" d="M321.1,51.9c-7.5-6.7-15.2-5.8-23.3-3.2c-2.8,0.9-4.8,2.9-7.1,4.5c-6,4.2-10.9,9.6-16.7,14.2
		c-0.7,0.6-1.8,2.1-2.7,1c-1.1-1.4,0.8-2,1.6-2.6c4.7-3.4,8.3-7.9,12.5-11.8c3.6-3.3,8-5.5,11.8-8.6c0.2-0.2,0.4-0.3,0.6-0.3
		c6.7,0.8,13.4-2.6,20.1,0C321.2,46.3,321.2,46.4,321.1,51.9"/>
	<path class="st1" d="M164.3,131.2c1.9-0.5,3.2,1,4.6,1.7c7.9,4.1,14.5,9.7,19.5,17.2c0.3,0.5,1.1,0.6,0.4,1.3
		c-0.5,0.5-0.9,0.1-1.5-0.2c-8.2-5.4-16.4-10.7-24.7-16.1c-0.7-0.5-2.2-0.8-1.8-1.9C161.4,131.8,162.9,131.4,164.3,131.2"/>
	<path class="st0" d="M436.7,146c1.2,2.7,3.9,2.3,6,2.5c2.6,0.3,2.9,2.3,2.6,3.6c-0.4,1.6,0.2,4.3-3,4.5c-4.2,0.3-8.2-1-12.1-2.1
		c-1.2-0.3-2.3-0.6-3.5-0.4c-1.2-0.7-2.3-1.7-4-1.5c1,1.7,2.4,1.8,4,1.5c0.6,0.5,1.3,0.9,2.2,1.6c-1.4,1-2.8,0.7-4.1,0.9l0.1,0
		c-1-0.4-2-0.9-3-1.3c-1.6-0.6-2.4-1.3-1.5-3.3c0.8-1.8,1.8-2.2,3.4-1.7c3.2,1,6.6,1.9,9.7,3.2c2.7,1.2,5.4,1.2,8.3,0.6
		c-2.3-1.8-5.5-0.8-7.9-2.7c1.6-1.8,3.4,0.1,5.2-0.8c-3.6-1.3-7-2.6-10.4-3.9c-1-0.4-2.5-0.5-2-2c0.5-1.5,1.9-1.4,3.1-1.1
		C432,144.2,433.9,146.5,436.7,146L436.7,146z"/>
	<path class="st1" d="M220.2,79.1c-5.5-3.3-11-6.6-17-8.8c-2.3-0.8-4.7-1.4-7-2c-7.9-1.8-14.3,1-19.6,6.8c-0.6,0.7-1.2,2.4-2.4,1.3
		c-1.1-0.9,0-1.9,0.7-2.8c1.7-2.1,3.3-4.2,5-6.3c1.1-1.3,2.4-1.8,4.2-1.9c9.1-0.5,17.6,2,25.9,5.1c5.2,1.9,9.3,6.3,15,7.2
		c0.3,0,0.6,0.8,0.6,1.2c0,0.9-0.8,0.9-1.3,0.6C222.9,79.1,221.7,78.6,220.2,79.1L220.2,79.1z"/>
	<path class="st0" d="M297.7,129.9c-0.1-1.1-0.2-1.8,0.2-2.5c4.6-7.1,7.1-15.1,10.3-22.8c0.5-1.2,1-1.9,2.2-2c1.1-0.1,2.4-0.8,3.2,0
		c1,1-0.3,2.1-0.7,3c-3.5,8-7,16-10.7,23.9c-0.5,1.1-0.8,2.7-2.5,2.6C298.2,132,297.6,131,297.7,129.9"/>
	<path class="st0" d="M277.7,322.7c-5.6,5.8-12.7,8.1-19.6,10.1c-8,2.2-16.1,4.3-24.6,3.6c-1-0.1-2.5,0.6-2.6-1.1
		c0-1.6,1.6-1.2,2.5-1.3c9.9-1.1,19.7-2.3,29-6.1c3.3-1.3,6.4-2.9,9.7-4.2C273.8,323,275.2,321.8,277.7,322.7"/>
	<path class="st0" d="M271.1,63.1c0.4-3.2,3-5,4.9-7.2c6.1-6.7,13.8-11.9,19.1-19.5c0.3-0.4,0.7-0.9,1.1-0.9
		c5.4-0.3,9.8-3.8,15.1-4.4c1.1-0.1,2.3-0.5,2.9,0.9c0.3,0.6,1.2,1.1,0.7,1.9c-0.4,0.6-1.1,0.4-1.7,0.4c-8.8-0.3-15.8,3.6-21.8,9.5
		c-6.3,6.1-12.3,12.5-18.5,18.8C272.6,63,272.1,63.4,271.1,63.1"/>
	<path class="st0" d="M328.5,102.5c1.5,0.1,3.1-0.4,3.7,0.8c0.6,1.3-1,2.2-1.7,2.9c-4.8,4.9-9.4,9.9-11.9,16.3
		c-0.9,2.3-1.6,4.6-2.4,6.9c-0.5,1.3-1.1,2.9-2.6,2.4c-1.4-0.4-0.8-2-0.6-3.2c1.3-8.2,5.8-14.8,10.9-21.1
		C325.4,105.7,326.2,103.2,328.5,102.5"/>
	<path class="st0" d="M425.7,125.2c1.2-0.2,2.4-0.4,3.3-1.4c0.5-0.6,1.2-0.9,1.9-0.4c0.7,0.5,0.2,1.1,0,1.7c-1,2.5-1.5,5.3-4.2,7.1
		c-1.6,1-2.6,2.9-3.8,4.4c-2,2.5-4.4,3.9-7.7,2.9c-1.4-0.4-2.3,0.3-3.5,0.7c-1.8,0.7-3.6-0.3-4.1-1.5c-0.7-1.8,1.6-1.2,2.4-1.8
		C415.6,133.2,421.7,130.6,425.7,125.2L425.7,125.2z M427.1,127.7c-2,1.5-3.9,3-5.9,4.5C424.8,132.7,426.1,130.4,427.1,127.7
		 M415.3,138.5c0.4,0,0.7,0,1-0.1c0.1,0,0.2-0.3,0.2-0.5c-0.3,0-0.6-0.1-1,0C415.5,137.9,415.4,138.2,415.3,138.5"/>
	<path class="st0" d="M394.9,102.3c0-0.7,0-1.3,0-2l0,0c2.9-0.6,4.5-3.2,6.8-4.7c0.9-0.6,1.9-1.6,3-0.9c1.3,0.8,0,1.9-0.2,2.9
		c-0.8,4.6-4.2,7.5-6.8,11c-2,2.7-3.4,5.7-7,6.2c-3,0.4-6.2,0.3-9.2,0.1c-0.9-0.1-1.8-1-2.9-1.7c1.9-1.7,3.7-2.3,5.6-2.6
		c0.1,0.1,0.2,0.2,0.3,0.2c0.3,1-0.8,1.2-1.2,2.2c1.7-0.7,2.9-1.6,4-2.7l0,0c1.6,0,2.6-1,3.7-2c0.7-0.7,2.2-1.6,2.4-0.8
		c0.8,2.9,1.6,0.6,2.2,0.1c1.7-1.6,3.4-3,4.6-5.1c0.4-0.8,2-1.4,1.1-2.4c-0.9-1-1.6,0.4-2.3,0.9c-1,0.7-2,1.3-3.1,1.9
		C395.5,102.8,395.2,102.5,394.9,102.3"/>
	<path class="st1" d="M193.1,118.9c3.6-1.7,5.5-0.6,7.4,2.1c3.9,5.6,8.2,10.9,12.8,16c0.6,0.6,1.3,1.3,1.5,2c0.3,1.5,1.4,3.5,0,4.4
		c-1.8,1.2-2.2-1.3-3.1-2.2C205.5,133.8,199.4,126.4,193.1,118.9"/>
	<path class="st1" d="M215.7,61.9c1.2,2.7,4.2,3,6.1,4.9c0.8,0.8,2.4,0.9,2.2,3.1c-4.2-2.2-8.2-4.1-12.1-6.3
		c-6.1-3.5-11.5-8-18.4-10.2c-6.4-2.1-12.8-2.9-19.3-0.4c0-3.1,0.2-3.5,2.8-3.7c5.1-0.3,10.2,1,15.4,0.3c1-0.1,2.2,0.9,3.2,1.7
		c5.5,4.3,12.1,6.8,18,10.5C214.2,62.2,215,62.2,215.7,61.9L215.7,61.9z"/>
	<path class="st1" d="M201.7,146.9c-2,0.3-3-0.7-3.6-1.8c-4.5-8.4-11.5-14.1-19.8-18.5c-0.8-0.4-1.5-1.2-2.3-1.9
		c2-2.2,3.6-2.5,6.2-0.5c5.8,4.5,11.6,8.9,16,14.8C200.1,141.4,201.1,144,201.7,146.9"/>
	<path class="st0" d="M404.4,125.8c-0.9,0.2-1.6,0.3-1.8-0.7c-0.2-1,0.4-2,1.2-2c2.6,0,4.4-2,6.8-2.6c2.1-0.5,4.8-0.9,4.4-4.2
		c-0.1-1,1-0.8,1.5-1.3c2.7-2.4,6.4-2.9,9.4-4.9c2.3-1.5,2.9,0.8,3.8,2.1c1,1.5,0.5,2.9-1.2,3.5c-3.5,1.3-6.8,3.2-10.6,4.1
		c-3.2,0.8-6.2,2.6-9.3,4C407.2,124.5,405.8,125.2,404.4,125.8"/>
	<path class="st0" d="M370.4,67c0.3,1.7-0.1,2.4-1.1,2.9c-11.1,5-19.3,14.3-29.7,20.3c-1,0.5-1.8,2.3-2.9,0.6
		c-0.9-1.3,0.5-2.2,1.4-2.9c4.4-3.8,9.4-7,14.3-10.1c4.9-3.1,9.6-6.6,13.9-10.6C367.5,66.1,369.3,64.6,370.4,67"/>
	<path class="st1" d="M90,174.8c-2.3-0.6-4.1-2.8-3.5-4.3c0.6-1.6,3.3-0.2,4.8,0.5c6.8,3,13.6,5.6,21,6.6c-2.3,3.4-2.2,3.3-5.8,2.5
		c-1-0.2-2.9-2.1-2.5,1.3c0.1,0.8-2.1,0.7-3.3,0.4c-3.2-0.9-5.8-2.8-8.1-5.1c0.1-0.2,0.3-0.4,0.4-0.6c1.4-0.2,2.6,1.7,4,0.3
		c0.3-0.4,0.6-0.9-0.1-1.2c-2.2-0.9-4.4-1.7-6.7-2.4c-0.4-0.1,0,1,0.1,1.6C90.3,174.6,90.2,174.7,90,174.8"/>
	<path class="st1" d="M131.3,98c0,0,0.7,0,1.2,0.3c10.7,5.5,22.5,7.9,33.4,12.7c0.4,0.2,0.9,0.4,1.3,0.7c0.5,0.4,1.7,0.4,1.1,1.4
		c-0.4,0.7-1,0.9-1.9,0.6c-2.6-0.9-5.4-1.6-8-2.5c-4.8-1.7-9.4-4-14.2-5.6c-3.9-1.3-7.5-3.3-11.7-3.7c-1.4-0.1-3-0.3-3.3-2.3
		C129.2,98.5,129.7,98,131.3,98"/>
	<path class="st1" d="M87.4,197.4c1.2-0.2,2.4-0.4,3.5-0.6l0.1,0.1c-1.5,2.8-5.1,2.6-7.5,5.4c7.6-1,12.2-7.1,18.7-9.1
		c0.2,2.2-1.5,2.4-2.5,3.1c-4.5,2.9-9,5.9-14,7.8c-1.2,0.4-2.8,1.8-4-0.2c-1.6-2.6-1.6-2.6,2.3-4.3c-1.7-0.8-3.6,1.1-5.6-0.6
		c3.2-2.3,7.1-3.3,9.8-6.1c1.2-1.3,2.7-2.4,4-3.6c0.9-0.8,1.8-0.9,2.6-0.1c1,1.1-0.2,1.8-0.8,2.4c-2.2,2.1-5.2,3.1-6.9,5.8
		c-0.7,0.3-1.7,0-2.2,1.2C86,198.3,87,198.7,87.4,197.4"/>
	<path class="st1" d="M88.6,162.3c3,1.9,5.8,4.1,9.8,2.5c2.1-0.9,4.5-0.8,6.3,1.3c-1.4,0.1-2.8,0.3-4.2,0.4c-0.4-0.6-1-0.7-1.6-0.4
		c-0.2,0.1-0.2,0.3-0.4,0.5c0.6,0.1,1.2,0.2,1.8,0.4c2,1.2,4.1,1.9,6.6,1c-0.5-1-2.2-0.3-2-1.8c2.9-0.3,5.8,0.5,8.7-0.2
		c0.9-0.2,2,0.7,1.3,1.5c-1.3,1.4-0.7,1.6,0.5,2.5c0.8,0.6-0.1,1.3-1.2,1.4c-5.7,0.3-11.2-1-16.4-3c-4.3-1.6-8.8-2.8-13.3-4.4
		C85.3,162,87.3,163.1,88.6,162.3L88.6,162.3z"/>
	<path class="st0" d="M369.4,74.5c0.5,5.4-2.1,7.5-6.6,8.8c-6.2,1.8-11.7,5.3-17,9.1c-0.3,0.2-0.5,0.6-0.8,0.7
		c-1.6,0.4-3.2,3.2-4.6,1.2c-1-1.5,1.8-2,2.9-3c6.6-6.2,15.1-9.3,22.8-13.5C367.5,76.9,367.7,75.3,369.4,74.5"/>
	<path class="st0" d="M261,356.9c6.4-1,13-0.9,19.2-3.2c0.4-0.1,1.1,0,1.3,0.2c0.3,0.6,0,1.2-0.6,1.5c-1.2,0.6-2.4,1.3-3.7,1.6
		c-10.7,2.4-21.4,4.2-32.3,4.5c-1.1,0-2.5,0.4-2.5-1.2c0-1.4,1.4-1.1,2.2-1.3C250.1,358.4,255.5,357.7,261,356.9"/>
	<path class="st1" d="M131.4,88.8c2,0.5,4.6,0.7,6.7,1.8c9,4.7,18.7,7.6,28.2,11.1c1,0.4,2.6,0.4,2.2,1.8c-0.4,1.2-1.9,0.5-2.9,0.2
		c-9.3-2.9-18.3-6.5-27.4-10.2c-2.5-1-4.9-2.2-7.6-2.4c-1-0.1-1.9-0.2-1.7-1.4C129.1,88.6,130.2,89,131.4,88.8"/>
	<path class="st0" d="M368.2,57.8c0.3,1-0.2,1.3-0.9,1.7c-8.9,5.1-16.3,12.3-24.9,17.7c-2.1,1.3-4,2.8-6.1,4.1
		c-0.7,0.5-1.9,1.3-2.5,0.1c-0.5-0.9,0.4-1.5,1.1-2c5-3.5,10-6.9,14.9-10.5c4.3-3.1,8.5-6.5,12.7-9.7c1.2-0.9,2.7-1.2,3.9-2
		C367.6,56.2,367.8,57.1,368.2,57.8"/>
	<path class="st0" d="M414.4,128.9c-3.5,0.5-6.4,2.9-10,3.3c-0.7,0.1-1.5,0.6-1.9-0.3c-0.5-1.2,0.6-1.4,1.4-1.6
		c2.2-0.5,4.1-1.5,5.7-2.9c3.4,0,5.8-2.1,8.3-4c-3,0.9-5.9,1.9-8.3,4c-1.9,0.3-3.9,0.5-5.7,1.4c-0.7,0.4-1.5,0.3-1.7-0.7
		c-0.1-0.7,0.4-1.3,1-1.2c5.4,0.4,8.9-4.8,13.8-5c4.3-0.2,7-2.9,10.4-4.7c0.9-0.5,1.8-0.8,3.3-0.1
		C425.5,121.6,419.1,124.2,414.4,128.9L414.4,128.9z"/>
	<path class="st1" d="M114.3,138c1,2.8,3.8,2.6,5.9,3.6c2.3,1.1,4.8,1.6,6.7,3.4c-4.3-0.4-8.1-2.2-12-3.7c-1.6-0.6-3.2-1.3-4.7-2.1
		c-0.7-0.3-1.5-0.8-2-0.1c-0.7,1,0.4,1.4,1.1,1.9c4.3,3.2,8.9,6,13.8,8.2c0.5,0.2,1.2,0.2,1.4,1.3c-3.4,0-6.4-0.1-9.1-3.1
		c-2.4-2.7-6.5-3.3-8.7-6.5c-0.4-0.5-0.8-0.9-1.2-1.4c-1-1.2-2.5-2.8-1.6-4.1c1.2-1.7,2.7,0.3,4.1,0.6
		C110.3,136.5,111.8,138.7,114.3,138L114.3,138z"/>
	<path class="st1" d="M165.8,117.7c-0.4,1.3-1.2,0.8-2,0.6c-4.8-1.4-9.4-3.2-14.4-4c-4.1-0.6-7.9-2.4-12.2-1.8
		c-2,0.3-3.3-1.5-3.2-3.1c0.1-1.6,1.9-1,3-0.7c8.9,2,17.9,3.4,26.2,7.3C164.1,116.4,165.3,116.5,165.8,117.7"/>
	<path class="st1" d="M206.9,81c-4.5-1.6-9.2-0.3-13.8-0.4c-4.5-0.1-8.8,3.7-10.1,8.2c-0.3,1,0.1,3-1.8,2.4c-1.6-0.5-1.3-2-0.7-3.4
		c3.7-9.1,5.6-10.3,15.9-10.2c3.9,0,7.8-0.6,10.7,2.9C207.1,80.8,207,80.9,206.9,81"/>
	<path class="st0" d="M403.7,82.3c0.4,1.1-0.7,1.4-1.4,2c-2.5,2-5.5,3.2-8.6,4.1c-6.5,1.8-11.9,6.2-18.3,8c-0.6,0.2-1.2,1.9-1.9,0.3
		c-0.5-1.2-0.2-2,1.1-2.6c6.6-3.1,13.2-6.3,19.8-9.5c2.3-1.1,4.6-2.3,6.8-3.6C402.5,80.4,403.3,80.6,403.7,82.3"/>
	<path class="st1" d="M132,128.9c-3,0.7-5.4-0.6-7.9-1.2c-5.6-1.3-11.4-1.4-17-2.2c-1.5-0.2-3-1.1-4.5-1.4c-1.1-0.2-1.5-0.8-1.3-1.7
		c0.2-0.9,0.8-1.4,1.9-1.2c1.9,0.4,3.8,0.8,5.7,1.2c7.7,1.5,15.3,2.9,23,4.3c0.9,0.2,1.9,0,2,1.1C133.9,129.4,132.5,128.7,132,128.9
		"/>
	<path class="st0" d="M278.4,46.8c-2.5,0.3-2.9,3.7-5.8,3.7c-0.1-1.1-0.1-2.1,0.8-2.9c7-5.8,12.2-13.3,19-19.2
		c1.6-1.4,3.3-2.4,5-3.7c0.7-0.5,1.6-1.1,2.2-0.2c0.7,1-0.3,1.4-1,1.9c-7,5.4-12.7,12.1-18.9,18.3C279.2,45.3,278.8,46.1,278.4,46.8
		L278.4,46.8z"/>
	<path class="st0" d="M394.9,100.3c-5.1,2.6-9.1,6.8-14.1,9.6c-0.8,0.5-1.6,1.1-2.5,1.5c-0.8,0.3-1.4-0.2-1.8-0.9
		c-0.4-0.8,0.3-0.9,0.8-1.3c8.2-6.5,16.7-12.6,25.5-18.2c0.7-0.5,1.6-1.4,2.2-0.5c0.7,1-0.2,1.7-1.1,2.3c-2.5,1.7-4.9,3.5-7.3,5.3
		C395.8,98.7,394.9,99.2,394.9,100.3L394.9,100.3z"/>
	<path class="st0" d="M402.6,172.7c5.3,2.5,9.3,6.7,13.2,10.7c1.9,2,1.5,5.8,1.4,8.8c0,0.4-0.2,1-0.9,1c-0.9-0.1-1.1-1-1.4-1.5
		c-2.5-5-5.8-9.5-9-14.1c-1.1-1.6-3.2-2.4-3.6-4.5C402.4,173,402.5,172.8,402.6,172.7"/>
	<path class="st1" d="M114.3,137.9c-2.6-3.3-6.7-3.5-10.2-5c-1-0.4-2.2-0.2-2.4-2.1c4.3,0.4,8.3,1.8,12.1,3.4
		c6.3,2.6,12.9,4.4,19,7.6c0.8,0.4,2.7,0,2,1.8c-0.6,1.4-1.9,0.4-2.9,0.2c-4.8-1.3-9.5-3.2-14-5.1
		C116.8,138.1,115.6,137.4,114.3,137.9L114.3,137.9z"/>
	<path class="st1" d="M219.9,58.1c-6.1-2.4-10.8-5.4-15.5-8.3c-5.4-3.3-10.8-6.5-16.8-8.7c-0.7-0.3-1.6-0.2-1.4-1.2
		c0.3-1.2,1.3-1,2.1-0.6c3.8,1.5,8,2.6,11.3,5c5.4,4,11.3,7.1,17.2,10.3C217.9,55.2,218.8,56,219.9,58.1"/>
	<path class="st0" d="M375.8,105.1c-1,0-2.1,0.5-2.4-0.6c-0.4-1.2,0.7-1.3,1.4-1.7c5.4-3,11.7-4.4,16.5-8.7c2.7-2.4,5.7-4.6,8.6-6.8
		c0.9-0.6,1.9-1.1,2.9-1.5c0.7-0.2,1.5-0.4,1.9,0.5c0.2,0.7-0.3,1.2-0.9,1.4c-6.8,3.3-11.8,9-18.1,12.9
		C382.5,102.7,379.1,104,375.8,105.1"/>
	<path class="st1" d="M200.3,95.3c5.2,1.4,11.7-0.2,17,3.7c0.5,0.4,1.6,0.6,1,1.5c-0.5,0.7-1.2,0.4-1.9,0
		c-5.2-2.9-10.8-2.5-16.4-1.7c-2,0.3-3.9,0.6-4.9,2.7c-0.6,1.2-1.4,1.3-2.4,0.5c-1-0.7-1-1.7-0.3-2.6
		C194.1,96.9,196.8,96.1,200.3,95.3"/>
	<path class="st0" d="M283.8,91.5c3.9-5.9,10.5-7,16.2-9.4c2.9-1.3,6.3-0.9,9.1,1c1.3,0.9,1.9,2,0.8,3.4c-1.1,1.4-1.9,0.8-2.9-0.3
		c-1.2-1.5-3.1-1.7-4.8-1.3c-5.1,1.3-10.7,1.7-14.8,5.6C286.5,91.3,285.6,92.6,283.8,91.5"/>
	<path class="st1" d="M115.6,130.4c4.3,3.2,9.5,3.2,14.5,3.9c1.2,0.2,2.5,0.2,3.6,0.6c0.8,0.3,2.7-0.6,2.3,1.3
		c-0.2,1.4-1.7,1.1-2.8,1.1c-7.6-0.3-14.5-3-21.3-6.1c-2.8-1.3-5.6-2.4-8.6-3c-1-0.2-1.9-0.4-1.6-1.4c0.2-1.1,1.4-0.9,2.2-0.6
		C107.8,127.5,111.7,128.9,115.6,130.4L115.6,130.4z"/>
	<path class="st1" d="M118.2,233.4c-5.6-10.9,3.3-16.2,7.7-23.2C122.8,217.6,120.6,225.4,118.2,233.4"/>
	<path class="st0" d="M294.8,78c2.2-5.4,5.6-8.9,11.6-8.2c3.7,0.5,7.5,1.1,9.5,5c0.6,1.2,1,2.5,0,3.3c-1.2,0.9-1.7-0.6-2.5-1.2
		c-1.3-1.1-2.5-2.2-3.8-3.3c-1.9-1.7-3.8-1.6-6.1-0.4C300.7,74.8,297.7,76.3,294.8,78"/>
	<path class="st1" d="M220.3,79.2c0.9,1.6,2.7,1.4,4.1,1.9c0.6,0.2,1.4,0.8,1,1.6c-0.3,0.6-1.1,0.5-1.7,0.3c-8-2.7-16-5.5-24-8.3
		c-0.9-0.3-2.5-1-2.1-2.1c0.5-1.5,2.3-1.4,3.5-0.9c3.9,1.4,7.6,3.2,11.3,5C214.8,77.9,217.2,79.6,220.3,79.2L220.3,79.2z"/>
	<path class="st1" d="M206,90.1c-3.1-0.8-6.3-1.5-9.4-2.4c-3.9-1.2-6.3,0.5-8.1,3.8c-0.4,0.6-0.7,1.3-1.2,1.8
		c-0.7,0.8-1.1,2.8-2.5,2.1c-1.2-0.6-0.9-2.4-0.4-3.7c2.4-6.8,12.9-9.2,18.2-4.2c1,1,2.3,1.7,3.5,2.5L206,90.1z"/>
	<path class="st1" d="M239.7,273.6c-6.5,0.7-12.2-1.4-17.5-4.8c-0.7-0.5-1.3-0.9-1-1.7c0.4-0.9,1.2-0.6,1.9-0.4
		c5.6,1.9,11.3,2.8,17,4.1c0.9,0.2,1.8,0.6,1.6,1.6C241.5,273.5,240.5,273.6,239.7,273.6"/>
	<path class="st1" d="M222.7,331.1c-2.9-2.8-3.3-5.8-4-8.5c-0.4-1.5-0.5-3.1-0.7-4.7c-0.8-6.1,1.3-9.3,8-11.6
		c-0.4,1.8-0.6,3.7-2,4.6c-5.7,3.6-3.9,8.6-2.6,13.4C221.9,326.3,222.5,328.2,222.7,331.1"/>
	<path class="st0" d="M319.4,41.8c-0.1,0.8-0.2,2-1.4,1.4c-5.5-2.5-10.8-0.1-16.1,0.4c-1.1,0.1-2.6,1.3-3.1-0.5
		c-0.4-1.5,1.2-1.6,2.1-2c4.8-2.3,9.9-2.2,15-2.6C318,38.4,318.6,40.3,319.4,41.8"/>
	<path class="st0" d="M284.5,356.4c-4.6,3.8-10.1,6.2-15.6,8.3c-4,1.5-7.7,3.8-12.1,4.1c-1.5,0.1-2.9,0.4-4.4-1.6
		c4.3-0.6,8-2.3,11.9-3.4c6-1.6,11.8-3.9,17.2-7.1c0.7-0.4,1.6-0.5,2.4-0.8C284.2,356.2,284.4,356.3,284.5,356.4"/>
	<path class="st0" d="M277.2,71.5c4.2-0.9,6.8-4.1,9.7-6.8c2.2-2.1,4.7-3.8,7.2-5.6c1-0.7,2.5-1.3,3.4-0.3c1.1,1.3-0.5,2.4-1.3,2.9
		c-6.8,4.9-13.8,9.6-20.7,14.3c-0.6,0.4-1.6,1.1-2.2-0.1c-0.4-0.9,0.2-1.6,1.1-2C275.7,73.5,277,73.1,277.2,71.5L277.2,71.5z"/>
	<path class="st1" d="M88.5,162.2c-1.1-1.4-4.7-0.2-4.2-2.3c0.6-2.6,3.6-0.8,5.1-0.5c7.4,1.5,15,2.1,22.4,3.3c0.9,0.2,2,0.2,1.9,1.2
		c-0.1,1.4-1.4,1-2.3,0.8C103.9,163.3,96.3,162.4,88.5,162.2L88.5,162.2z"/>
	<path class="st0" d="M357.7,70c-3.5,4-7.9,6.7-11.9,10c-2.9,2.4-6.2,4.2-9.4,6.3c-0.7,0.5-1.4,0.7-1.9,0c-0.6-0.8-0.3-1.8,0.5-2.3
		c7.5-4.7,14.4-10.3,22.1-14.6C357.2,69.7,357.5,69.8,357.7,70"/>
	<path class="st0" d="M291.8,154.5c-0.3,0.6-0.6,1.3-1,1.9c-3.3,3.9-7.2,7.1-11.3,10.1c-1,0.7-2,1.1-2.8-0.2
		c-0.7-1.1,0.1-1.9,0.9-2.5c4.2-2.7,7.4-6.6,11.1-9.9C289.8,153,290.9,152.6,291.8,154.5"/>
	<path class="st1" d="M177.8,57.3c4.2-1,8.4-1.6,12.7-1.1c0.9,0.1,2.2-0.2,2.1,1.3c-0.1,1.2-1.3,0.9-2.1,0.9c-4,0.2-8,0.1-11.9,1.5
		c-1.8,0.7-3.8,0.9-5.1,2.5c-0.4,0.5-1.1,0.8-1.6,0.5c-0.8-0.4-0.5-1.1-0.4-1.9C172,57.2,175.2,57.9,177.8,57.3"/>
	<path class="st1" d="M245.9,169.9c-0.1,1.4-0.8,1.9-2.2,1.4c-4.9-1.7-9.6-4-13.9-6.9c-0.7-0.5-1.5-1.4-0.8-2.5
		c0.6-0.9,1.4-0.7,2.2-0.2c4.4,2.3,8.5,5,13.3,6.6C245.2,168.6,245.7,169.1,245.9,169.9"/>
	<path class="st1" d="M84.2,166.8c2.7-1.2,5.2,0.5,7.6,1.2c7.1,2,13.9,4.8,21.2,6.1c0.8,0.1,1,0.7,0.8,1.3c-0.2,1-1,1-1.7,0.9
		c-2.3-0.5-4.5-0.9-6.7-1.6c-6.8-2.1-13.3-5.3-20.4-6.7C84.6,167.8,84.2,167.5,84.2,166.8"/>
	<path class="st1" d="M202.9,83.9c4.9,1.4,9.9,2.3,15,2.8c1.1,0.1,2.6,0.6,3-0.5c0.5-1.5-1.4-1.4-2.1-2c-0.8-0.6-2.2-0.4-2.4-2.2
		c3.3,0.2,5.8,2.2,8.7,3.3c1,0.4,0.9,1.3-0.1,2C220.1,90.4,207,88.5,202.9,83.9"/>
	<path class="st0" d="M284.4,114.4c-4.5,6.1-8.9,12.2-13.4,18.3c-0.4,0.5-0.9,1-1.5,0.7c-0.7-0.3-0.7-1.1-0.4-1.6
		c3.8-6.8,8-13.3,14.6-17.8C283.7,114,283.9,114.1,284.4,114.4"/>
	<path class="st0" d="M268.9,207.3c-0.7,0.1-1.2-0.1-1.5-0.7c-0.6-1-0.9-2.2-0.2-3.1c2.9-3.3,5.9-6.5,10.2-7.9
		c1.3-0.4,2.2,0.1,1.8,1.7C278.9,199,270.5,207.1,268.9,207.3"/>
	<path class="st0" d="M261.6,177.4c-0.2-0.7,0.1-1.6,1.4-2.4c3-1.8,5.9-3.9,8.8-5.8c0.5-0.3,1-0.8,1.6-0.2c0.5,0.5,0.3,1.1,0.1,1.7
		c-1,2.8-3.4,4.4-5.5,6.2c-1,0.9-2.2,1.6-3.1,2.5c-0.7,0.6-1.4,1.1-2.3,0.8C261.7,179.9,262,178.8,261.6,177.4"/>
	<path class="st0" d="M414.3,129c3.4-0.3,5.4-3,8.1-4.5c1.4-0.7,2.6-1.7,4.2-1.9c0.2,0.2,0.4,0.4,0.6,0.5c-0.5,0.7-1.1,1.4-1.6,2.1
		l0,0c-5.1,3.3-10.1,6.6-15.2,9.9c-0.5,0.3-1,0.8-1.5,1c-1.4,0.5-3.3,1.9-4.1,0.2c-0.8-1.8,1.8-1.3,2.6-2.1
		C409.7,132.3,412.7,131.5,414.3,129L414.3,129z"/>
	<path class="st0" d="M364.9,86.3c-1.5,3.8-4.8,4.3-7.1,5.4c-2.8,1.4-5.4,2.7-7.7,4.8c-0.6,0.6-1.4,0.9-2.2,1.2
		c-0.8,0.2-1.8,0.2-2.3-0.6c-0.8-1.1,0.4-1.4,0.8-2.1c0.9-1.7,2.8-2.1,4.3-2.6C355.3,90.7,359.3,87.3,364.9,86.3"/>
	<path class="st1" d="M143,116.3c4.8,1.6,10.4,1.6,15.6,3c0.9,0.3,3.1,0.6,2.3,2.5c-0.6,1.6-2.2,1.2-3.5,0.5
		c-4.8-2.3-10.1-2.6-15.2-3.7c-1-0.2-1.8-0.5-1.6-1.5C140.9,116.2,141.9,116.5,143,116.3"/>
	<path class="st1" d="M200.5,50.7c-6-3-12.8-3.4-18.9-6c-0.6-0.3-1.9-0.3-1.6-1.6c0.3-1,1.4-1.4,2.1-1.1c6.3,2.5,13.6,3.1,18.7,8.4
		C200.8,50.5,200.7,50.6,200.5,50.7"/>
	<path class="st1" d="M195,73.7c-7.9-0.5-12.2,4.9-17,9.4c-0.4,0.4-0.9,1.1-1.5,0.4c-0.3-0.4-0.5-1.3-0.3-1.7
		c0.7-1.2,1.5-2.5,2.6-3.5c3.1-2.8,6.8-4.7,10.6-6.2C191.2,71.5,193.3,71.1,195,73.7"/>
	<path class="st1" d="M147.4,100c4.5,0.5,8.4,2.9,12.8,4c2.6,0.6,5.1,1.6,7.6,2.5c0.9,0.3,1.5,0.9,1.4,1.9c-0.1,0.8-0.8,0.9-1.4,0.7
		c-7.1-2.3-14.4-4-20.6-8.5C147.1,100.2,147.2,100.1,147.4,100"/>
	<path class="st0" d="M300.2,59.2c1-2.4,2.8-2.8,4.7-2.6c5.1,0.5,10,1.6,14.4,4.5c1.3,0.9,2.2,2.1,1.3,3.2c-0.9,1.1-1.9-0.5-2.7-1
		C312.9,60.2,309.2,59.3,300.2,59.2"/>
	<path class="st0" d="M440.5,161.6c-2.6,3.4-5.9,2.1-8.7,1.9c-3.9-0.2-7.7-1.2-11.6-1.9c-0.8-0.1-1.6-0.2-1.5-1.2
		c0-1.4,1.2-1,1.9-0.9C427,161,433.5,160.4,440.5,161.6"/>
	<path class="st1" d="M85.9,208.7c6.5-1.4,12.8-3.8,18.9-6.4c0.8-0.3,1.7-1.4,2.3,0c0.5,1.1-0.7,1.2-1.5,1.6
		c-4.4,2.3-9,4.3-13.7,5.8C89.9,210.3,87.5,211.5,85.9,208.7L85.9,208.7z"/>
	<path class="st1" d="M226.9,122.8c5.8,1.7,15.5,9.3,18.9,15c-2.2-0.5-15.9-11-19.1-14.7L226.9,122.8z"/>
	<path class="st1" d="M199.7,93.3c-4.8-2.1-7.2,0.8-9.1,4.6c-0.6,1.2-1.6,1.5-2.7,0.7c-1.2-0.9-0.5-1.6,0.1-2.4
		c3.7-5.7,7.5-7.4,12.3-5.5c0.7,0.3,1.5,0.5,1.5,1.3C201.7,93.4,200.5,92.7,199.7,93.3"/>
	<path class="st0" d="M304.8,75.2c2-0.3,8.6,3.5,9.2,5.2c0.2,0.6,0.1,1.2-0.4,1.7c-0.5,0.4-1.1,0.6-1.7,0.4
		c-1.1-0.4-1.8-1.3-2.5-2.1c-1.8-1.9-3.9-3-6.5-1.4c-0.7,0.4-1.6,0.5-2.5,0.7c-0.7,0.1-1.5,0.5-1.9-0.4c-0.3-0.8,0.3-1.3,0.9-1.8
		C301.1,76.3,302.9,75.5,304.8,75.2"/>
	<path class="st0" d="M278.4,46.8c2.4,0,3.3-2.2,4.8-3.5c1-0.8,1.6-2.1,3.1-2.3c0.2,0.2,0.4,0.3,0.6,0.5c-4,6.4-9.8,10.9-15.3,16.6
		c-0.9-3.3,1.1-4.5,2.4-6.1C275.5,50.3,278.3,49.7,278.4,46.8L278.4,46.8z"/>
	<path class="st1" d="M197,104.9c4.3-5.5,9.4-6,17-2.9C208.5,102.7,203.2,103.5,197,104.9"/>
	<path class="st0" d="M289.2,92.1c3.7-4,10.2-5.8,14.6-4.1c0.8,0.3,1.7,0.7,1.6,1.7c-0.1,0.7-1,1.3-1.7,1.2
		C298.9,90.1,294.2,91.9,289.2,92.1"/>
	<path class="st1" d="M203.5,52.2c3.1,0.1,5.2,2.5,7.8,3.7c2.8,1.3,5.4,2.9,8.1,4.1c1.6,0.7,2.4,1.9,3.1,3.6
		c-2.6,0.5-4.1-2.9-6.7-1.8l0,0c0.2-1.2-0.6-1.5-1.5-2.1c-3.8-2.3-7.8-4.2-11-7.2C203.3,52.4,203.4,52.3,203.5,52.2"/>
	<path class="st0" d="M291.8,35.9c1.1-3.7,4.6-4.9,7.2-6.9c1.4-1.1,3.2-1.7,4.5-3c0.7-0.7,2.2-1,3,0.1c1,1.4-0.7,1.4-1.3,2
		C301.5,31.8,296.4,33.3,291.8,35.9"/>
	<path class="st0" d="M293.9,78.6c-1.1,2.4-3.5,3.2-5.1,4.8c-1.8,1.8-4.3,2.8-5.6,5.1c-0.9,1.5-2.8,1.6-3.5,0.8
		c-1.2-1.2,0.3-2.1,1.3-3c2.9-2.5,5.9-4.7,9.1-6.7C291.1,79.1,292.2,77.9,293.9,78.6"/>
	<path class="st0" d="M379.2,80.6c4.2-5.4,9.5-6.7,15.2-6.9c0.6,0,1.2,0.2,1.4,0.9c0.1,0.8-0.5,1.1-1.1,1.2
		C389.3,75.9,385.2,79.8,379.2,80.6"/>
	<path class="st1" d="M206.1,89.9c5.4,0.4,10.2,2.6,15.1,4.8c0.6,0.3,1.1,0.5,1,1.2c-0.1,0.9-0.9,1-1.7,1.1c-1.6,0.2-2.7-1.1-4-1.7
		c-3.6-1.7-7.5-2.5-10.6-5.2L206.1,89.9z"/>
	<path class="st1" d="M122.3,114.6c-4.8,0.7-9.6-1.9-14.5-0.5c-0.5,0.1-0.9-0.2-1-0.7c-0.1-0.5,0.2-0.8,0.7-1.1
		c3.8-2.2,11.8-1.1,14.9,2.2L122.3,114.6z"/>
	<path class="st0" d="M418.1,107.1c1.6,0.2,4.1-1.5,4.6,0.3c0.4,1.8-2.5,1.5-3.9,2.1c-2.6,1.1-5.6,1.5-8.1,3
		c-0.7,0.5-1.4,0.5-1.9-0.3c-0.4-0.7,0.3-1.1,0.8-1.4C412.3,109.3,414.6,106.9,418.1,107.1"/>
	<path class="st1" d="M101.6,119.3c2.1-2.3,12.4-0.8,17.4,2.4C112.7,122.5,107.4,119.9,101.6,119.3"/>
	<path class="st0" d="M376.3,98.2c3.5,0.1,5.7-2.3,8.2-3.9c1.7-1.1,3.3-2,5.2-2.5c0.6-0.2,1.3-1,1.8,0.1c0.4,0.8-0.2,1.3-1,1.7
		c-4.5,2.3-9,4.7-13.6,6.8c-1.1,0.5-2.5,1-3.8,0.2c-0.2-0.1-0.3-0.7-0.2-1C373.6,97.9,375.2,98.7,376.3,98.2"/>
	<path class="st1" d="M104.7,153.6c-4.4-0.5-8.8-0.5-13.3-0.7c-0.7,0-1.7,0.2-1.7-0.8c-0.1-0.9,0.9-1,1.6-1.1
		C96.1,149.8,100.5,150.7,104.7,153.6"/>
	<path class="st1" d="M115.5,130.3c0.2-0.9-0.8-2.3,1.4-2c2.1,0.3,4.1,0.4,6.1,1.1c3.3,1.3,6.6,2.6,10.3,1.5
		c0.9-0.3,2.2-0.6,2.3,0.9c0.1,1.5-1.3,1.3-2.1,1.3c-3.5-0.1-7-0.8-10.4-1.9C120.6,130.4,118.1,130.2,115.5,130.3L115.5,130.3z"/>
	<path class="st0" d="M386.4,84.8c4.3-2.4,8.6-4.9,13-7.2c0.7-0.4,1.4-0.1,1.9,0.5c0.4,0.4,0.5,1,0,1.2c-4.7,2.5-9,5.8-14.4,6.6
		L386.4,84.8z"/>
	<path class="st0" d="M334.4,317.8c0.2-2.5,1.1-4.8-0.4-7.4c-1.1-1.8,1-3.6,2.1-5c0.8-1,1.5-0.1,1.5,0.9c0.3,4.3,0.2,8.4-2.5,12.1
		C334.9,318.2,334.6,318,334.4,317.8"/>
	<path class="st1" d="M117.8,117.8c4.1-1.2,7.7,0.9,11.4,1.9c0.3,0.1,0.6,0.8,0.6,1.2c0,0.6-0.6,0.9-1,0.8
		C125,120.8,121.2,120.1,117.8,117.8"/>
	<path class="st0" d="M374.3,89.5c1.4-3.4,8.6-8.4,11.1-8.1c0.3,0,0.8,0.2,0.8,0.4c0.2,0.8-0.3,1.4-1,1.8
		C381.8,85.5,378.3,87.4,374.3,89.5"/>
	<path class="st1" d="M253.7,199.6c1.9-0.5,3.2-0.1,4.3,0.6c1.6,1.1,1.9,3.3,1.2,4.6c-0.9,1.8-2.1-0.3-3.1-0.7
		c-0.9-0.5-1.7-1.3-2.6-1.9c-0.7-0.5-2.1-0.6-1.9-1.8C252,199.1,253.3,199.7,253.7,199.6"/>
	<path class="st0" d="M436.8,146.1c-0.3-2-4.7-1.4-3.3-3.8c1-1.8,2.9,1.3,4.7,1.2c1.9-0.1,3.5,0.9,5.2,1.6c0.7,0.3,1.5,0.7,1.3,1.5
		c-0.2,1.2-1.3,0.8-2.1,0.9C440.4,147.8,438.9,145.6,436.8,146.1L436.8,146.1z"/>
	<path class="st1" d="M253.7,212.8c2.1-1.1,2.1-2.6,0.6-4.3c2.3,0.7,5.5-0.3,6.1,3.7c0.3,2.3-0.4,2.5-2.3,2.1
		C256.6,213.9,255.4,212.6,253.7,212.8"/>
	<path class="st0" d="M428.4,158.8c4.2-1.4,8.4-0.7,12.6-0.7c0.6,0,1.7,0,1.5,1.1c-0.1,0.8-1,1.3-1.7,1
		C436.8,159,432.4,160.7,428.4,158.8"/>
	<path class="st1" d="M142.3,98.6c-4.3-0.5-8.1-3.1-12.6-3c-0.8,0-1-0.5-1-1.2c0-0.8,0.7-1,1.3-1c1.1,0.1,2.2,0.1,3.2,0.5
		c3.3,1,6.6,2.2,9.4,4.2C142.5,98.4,142.4,98.5,142.3,98.6"/>
	<path class="st0" d="M258,362.9c-3.4,2.3-7.5,2.2-11.4,2.7c-0.7,0.1-1.2-0.3-1.3-1c-0.2-1,0.6-1.2,1.4-1.3c3.7-0.5,7.4-1,11.1-1.5
		C257.8,362.1,257.9,362.5,258,362.9"/>
	<path class="st1" d="M78,196.4c1-2.8,3.2-3.1,4.6-4.2c1.6-1.2,3.6-2,4.8-3.8c0.3-0.5,0.9-0.9,1.5-0.5c0.6,0.4,0.7,1,0.2,1.5
		C86,192.2,83.3,195.8,78,196.4"/>
	<path class="st1" d="M85.9,208.7c-0.9-0.1-1.8-0.2-2-1.2c-0.1-0.9,0.8-1.2,1.4-1.4c3.9-1.4,7.8-2.8,12.8-3.4
		c-2.8,2.1-5.1,2.9-7.6,3.3C88.7,206.2,86.7,206.5,85.9,208.7L85.9,208.7z"/>
	<path class="st1" d="M109.8,158.8c-3.3-0.6-6.5-1.3-9.8-1.9c-0.5-0.1-0.9-0.3-0.9-0.9c0-0.4,0.2-0.7,0.6-0.7
		c3.7-0.1,7.2,0.8,10.6,2.1C110.1,157.9,110,158.3,109.8,158.8"/>
	<path class="st0" d="M384.2,110.5c2.8-3.7,7-5.7,10.7-8.3c0.3,0.2,0.6,0.5,0.9,0.7c-2.2,3.2-6.2,4.3-8.5,7.3c0,0,0,0,0,0
		c-0.9,0.2-1.9,0.3-2.8,0.5C384.4,110.7,384.3,110.6,384.2,110.5"/>
	<path class="st0" d="M414.5,114.4c-2.8,1.5-5.6,3.1-8.5,4.5c-0.5,0.2-1.3,0.4-1.6-0.3c-0.1-0.3,0.1-1.1,0.4-1.3
		C407.9,116.1,410.4,113.1,414.5,114.4"/>
	<path class="st1" d="M211.5,47.6c-3.8-0.8-6.2-3.9-9.3-5.8C205.9,42.8,209.4,44.1,211.5,47.6L211.5,47.6z"/>
	<path class="st0" d="M285.2,30.6c-2.2,3.2-4.4,6-7.2,8.5C278.3,36,282,31.6,285.2,30.6"/>
	<path class="st0" d="M361,66.5c1.3-2.7,3.9-3.8,6.4-4.9c0.7-0.3,1.7-0.7,2.2,0.4c0.6,1.3-0.5,1.6-1.4,2c-2.2,1-4.4,2-6.6,3.1
		C361.4,66.9,361.2,66.7,361,66.5"/>
	<path class="st0" d="M431.9,167.3c-4.2,2.1-7.1,0.4-10.2-0.9C425.1,165.1,428.1,166.8,431.9,167.3"/>
	<path class="st1" d="M223.2,92.7c-1.6-0.5-3.5-0.5-4.4-2.4c-0.2-0.4,0.3-1.2,0.7-0.9c1.6,1.2,4.1-0.4,5.2,1.7
		C225.2,92.2,224.2,92.5,223.2,92.7"/>
	<path class="st0" d="M433,150.4c-3.4,0.5-6.2-1-8.9-2.5c-0.2-0.1-0.4-0.8-0.3-0.9c0.4-0.3,0.9-0.7,1.2-0.5
		C427.7,147.7,430.3,149.1,433,150.4"/>
	<path class="st1" d="M253.8,176.9c-0.8-0.5-1.3-0.9-1.8-1.2c-1.1-0.9-2.3-1.9-2.1-3.5c0.1-0.9,0.9-0.5,1.4-0.3
		c1.7,0.6,3.5,1.3,2.9,3.7C254.2,176,254,176.3,253.8,176.9"/>
	<path class="st0" d="M424.7,156.6c0.2,1.2,1.9,0.3,2.2,1.6c-2.4,1.5-5-0.2-7.4,0.3c-0.5,0.1-0.9-0.3-0.9-0.9
		c-0.1-0.8,0.6-1.1,1.2-1C421.4,157,423.1,157,424.7,156.6L424.7,156.6"/>
	<path class="st1" d="M96.5,200.4c2.6-1.9,4.4-3.3,6.2-4.7c0.6-0.5,1.3-0.7,1.9,0c0.5,0.7-0.1,1.1-0.5,1.4
		C101.9,198.6,100.1,200.4,96.5,200.4"/>
	<path class="st1" d="M85.7,156.7c3.5-1,6.7,0.5,10,1.2C92.2,159.5,89,157.4,85.7,156.7"/>
	<path class="st1" d="M207.2,80.6c3,0,5.3,1.8,7.6,3.4c-3.2,0.4-5.8-0.5-7.9-2.9C207,80.9,207.1,80.8,207.2,80.6"/>
	<path class="st1" d="M98.8,201.6c2.5-1,5-2,7.5-3.1c0.1,0.4,0.3,0.7,0.4,1.1C104.3,200.9,101.9,202.4,98.8,201.6"/>
	<path class="st0" d="M276.1,84.8c1.5-2.8,4.1-2.7,6.2-3.4C280.9,83.5,279.7,86.2,276.1,84.8"/>
	<path class="st1" d="M105.6,208.7c-1.8,2.3-3.5,3.1-7.3,3.4C101,209.7,102.9,208.8,105.6,208.7"/>
	<path class="st1" d="M124.7,176.8c-1.1-0.1-1.2-0.8-0.8-1.5c0.8-1.8,1.8-3.5,2.9-5.6c1.8,2.6-1.4,4.1-0.7,6.2l0,0
		C125.3,175.7,124.9,175.9,124.7,176.8L124.7,176.8z"/>
	<path class="st0" d="M286.2,41c0.9-2.3,3-3.4,4.8-4.7c-0.6,2.4-1.8,4.3-4.2,5.2C286.6,41.3,286.4,41.2,286.2,41"/>
	<path class="st1" d="M99.3,190.8c-1.2,1.7-2.1,3.2-4.5,3.1C95.7,191.9,96.8,190.7,99.3,190.8"/>
	<path class="st0" d="M426.7,122.6c0.8-1.7,2.3-2.2,4-2.3c0.1,0,0.5,0.6,0.4,0.9c-0.5,2.1-2.5,1.3-3.8,2
		C427.1,123,426.9,122.8,426.7,122.6"/>
	<path class="st1" d="M147.1,100.4c-1.8,0-3.7,0.1-4.8-1.8c0.1-0.1,0.2-0.3,0.3-0.4c1.8,0,3.6,0,4.8,1.8
		C147.2,100.1,147.1,100.2,147.1,100.4"/>
	<path class="st0" d="M357,69.5c0.6-1.9,2.4-2.3,4-2.9c0.2,0.2,0.4,0.4,0.7,0.5c-0.6,2-2.4,2.3-4,2.9
		C357.5,69.8,357.2,69.7,357,69.5"/>
	<path class="st1" d="M126.8,147.3c0.1,0,0.2-0.1,0.4-0.1c1.1,0.1,2.4-0.9,3.3,0.5c0.3,0.4,0.1,1.1-0.4,1.2c-1.4,0.4-2.6,0-3.4-1.3
		C126.7,147.6,126.8,147.5,126.8,147.3"/>
	<path class="st1" d="M203.2,52.6c-1.4,0.1-2.4-0.4-2.7-1.9c0.1-0.1,0.2-0.2,0.3-0.3c1.3,0,2.2,0.6,2.7,1.8
		C203.4,52.3,203.3,52.4,203.2,52.6"/>
	<path class="st1" d="M92.7,176.7c-1.4,0.1-2.3-0.4-2.6-1.9c0.1-0.1,0.3-0.2,0.4-0.4c1.2,0.1,1.9,0.8,2.6,1.7
		C92.9,176.3,92.8,176.5,92.7,176.7"/>
	<path class="st1" d="M126.7,147.7c-0.8,0-1.7-0.1-2.9-0.1c1.3-1.2,2.2-1.3,3.1-0.3C126.8,147.5,126.7,147.6,126.7,147.7"/>
	<path class="st1" d="M122.4,114.4c0.5,0.1,1.1,0.2,1.6,0.3c-0.1,0.1-0.1,0.2-0.2,0.3c-0.6,0.2-1.1,0.2-1.5-0.4L122.4,114.4"/>
	<path class="st1" d="M90.9,196.8c0.1-0.8,0.6-1,1.3-0.9c0.2,0,0.3,0.2,0.4,0.4L90.9,196.8L90.9,196.8z"/>
	<path class="st0" d="M235.6,364.6c-0.2,0.1-0.4,0.2-0.6,0.2c-0.1,0-0.2-0.1-0.3-0.1c0.1-0.1,0.3-0.3,0.4-0.3
		C235.2,364.4,235.3,364.5,235.6,364.6"/>
	<path class="st1" d="M94.1,194.7c-0.2,0.1-0.4,0.3-0.6,0.3c-0.1,0-0.2-0.2-0.4-0.3c0.2-0.1,0.4-0.3,0.5-0.3
		C93.9,194.4,94,194.6,94.1,194.7"/>
	<path class="st0" d="M226.7,123.1c-0.4-0.1-1.2-0.1-0.9-0.6c0.2-0.5,0.8-0.1,1.1,0.3L226.7,123.1z"/>
	<path class="st0" d="M316.7,324.7c0.1-0.4,0.2-1,0.8-0.7c0.5,0.3,0.3,0.8-0.1,1.2C317.2,325,317,324.9,316.7,324.7"/>
	<path class="st1" d="M224.1,73.9c0.5,0,0.9,0.1,1,0.6c0,0.1-0.1,0.2-0.2,0.3c-0.5,0.3-0.8-0.1-1-0.5
		C224,74.2,224.1,74.1,224.1,73.9"/>
	<polygon class="st0" points="210.3,118.2 210.1,118 210.4,118 	"/>
	<path class="st0" d="M262.6,256.4c-0.1,0.1-0.2,0.2-0.2,0.4c0-0.1,0-0.2,0-0.2C262.4,256.5,262.5,256.5,262.6,256.4L262.6,256.4z"
		/>
	<polygon class="st0" points="123.2,146.3 123.1,146.1 123.3,146.1 	"/>
	<polygon class="st0" points="211.5,47.6 211.7,47.7 211.5,47.6 	"/>
	<path class="st0" d="M253.7,150.3c0.5,0.1,0.6,0.3,0.3,0.8c-0.2-0.1-0.4-0.3-0.5-0.4C253.6,150.6,253.7,150.5,253.7,150.3"/>
	<path class="st0" d="M131.2,164c-0.1,0.1-0.2,0.2-0.3,0.3C131,164.2,131.1,164.1,131.2,164L131.2,164z"/>
	<path class="st0" d="M233,363c0.2,0.1,0.3,0.2,0.5,0.2C233.2,363.8,233.1,363.3,233,363L233,363z"/>
	<polygon class="st0" points="192.1,332.5 192,332.3 192.2,332.3 	"/>
	<polygon class="st0" points="345.3,64.2 345.5,64.1 345.5,64.2 	"/>
	<path class="st0" d="M350.7,53.5c0.1-0.1,0.2-0.2,0.2-0.4c0,0.1,0,0.1,0,0.2C350.8,53.4,350.7,53.4,350.7,53.5L350.7,53.5z"/>
	<path class="st0" d="M347.4,62.1c0,0.1-0.1,0.2-0.1,0.3C347.3,62.3,347.3,62.2,347.4,62.1L347.4,62.1"/>
	<path class="st0" d="M455.4,170.5c0-32.4,24.8-58.7,55.1-58.7c10.6,0,20.7,3.3,29.5,9l-2.3,3.4c-8.2-5.4-17.4-8.5-27.2-8.5
		c-28,0-51,24.6-51,54.8s23,54.8,51,54.8c9.5,0,18.8-2.8,26.6-8.2l2.3,3.4c-8.6,5.7-18.8,8.6-28.9,8.6
		C480.1,229.1,455.4,202.9,455.4,170.5"/>
	<path class="st0" d="M510.5,230.8c-31.3,0-56.8-27.1-56.8-60.3s25.5-60.3,56.8-60.3c10.6,0,21.1,3.2,30.4,9.2l1.4,0.9l-4.1,6.2
		l-1.4-0.9c-8.1-5.4-17.2-8.2-26.3-8.2c-27.2,0-49.4,23.8-49.4,53.1c0,29.3,22.2,53.1,49.4,53.1c9.3,0,18.2-2.7,25.6-7.9l1.4-0.9
		l4.1,6.2l-1.4,0.9C531.4,227.7,521.1,230.8,510.5,230.8 M510.5,113.4c-29.5,0-53.5,25.6-53.5,57s24,57,53.5,57
		c9.4,0,18.6-2.6,26.6-7.5l-0.4-0.7c-7.7,4.9-16.7,7.5-26.1,7.5c-29,0-52.7-25.3-52.7-56.4s23.6-56.4,52.7-56.4
		c9.2,0,18.4,2.7,26.8,7.9l0.5-0.7C529.2,116.1,519.9,113.4,510.5,113.4"/>
	<path class="st0" d="M588.9,110.1l36.4,117.4H621l-6.5-20.4h-51.7l-6.4,20.4h-4.1L588.9,110.1z M613.4,203.1l-24.5-79.9l-24.6,79.9
		H613.4z"/>
	<path class="st0" d="M627.5,229.2h-7.7l-6.5-20.4H564l-6.4,20.4h-7.5l38.8-124.6L627.5,229.2z M622.2,225.9h0.8l-34.1-110.2
		l-34.3,110.2h0.6l6.4-20.4h54.1L622.2,225.9z M615.6,204.7h-53.5l26.8-87.1L615.6,204.7z M566.5,201.4h44.6l-22.2-72.6L566.5,201.4
		z"/>
	<path class="st0" d="M634.2,206l3.8-1.5c5.5,12.7,19.1,20.7,33.4,20.7c16.8,0,30.8-9.6,30.8-25.4c0-17.8-21.5-24.8-31.3-27.4
		c-21.8-5.7-34.4-17-34.4-31.6c0-18.8,16.8-29,35.1-29c14.7,0,29,7.3,35.1,20.4l-3.6,1.6c-6.4-12.6-17.9-17.9-31.5-17.9
		c-17.3,0-31,9.5-31,24.6c0,17.3,18.3,24.3,31.3,28c23.1,6.7,34.4,17.3,34.4,31.1c0,18.3-15.8,29.5-34.9,29.5
		C654.6,229.1,639.9,220.2,634.2,206"/>
	<path class="st0" d="M671.4,230.8c-17.6,0-32.8-9.5-38.7-24.2l-0.6-1.5l6.8-2.6l0.6,1.4c5.1,11.8,18,19.7,31.9,19.7
		c17.2,0,29.2-9.8,29.2-23.8c0-11.6-10.4-20.6-30.1-25.8c-23-6-35.6-17.8-35.6-33.2c0-20.1,18.5-30.7,36.7-30.7
		c16.2,0,30.6,8.4,36.5,21.3l0.7,1.5l-6.5,3l-0.7-1.4c-7.1-14.1-20.2-17-30-17c-17.3,0-29.3,9.4-29.3,23c0,16,17.2,22.7,30.1,26.5
		c23.6,6.8,35.6,17.8,35.6,32.7C707.9,217.7,692.6,230.8,671.4,230.8 M636.4,206.9c5.8,12.6,19.4,20.6,35,20.6
		c19.6,0,33.2-11.5,33.2-27.9c0-13.3-11.2-23.2-33.2-29.6c-13.9-4-32.5-11.4-32.5-29.6c0-15.5,13.4-26.3,32.6-26.3
		c14.7,0,25.8,6,32.2,17.4l0.6-0.3c-5.8-11-18.5-17.9-32.8-17.9c-16.1,0-33.4,8.6-33.4,27.4c0,13.8,11.8,24.5,33.2,30
		c26.9,7.2,32.5,19.7,32.5,29c0,15.7-13.7,27.1-32.5,27.1c-14.7,0-28.2-8.1-34.3-20.3L636.4,206.9z"/>
	<path class="st0" d="M752.1,110.1l36.4,117.4h-4.2l-6.5-20.4H726l-6.4,20.4h-4.1L752.1,110.1z M776.6,203.1l-24.5-79.9l-24.6,79.9
		H776.6z"/>
	<path class="st0" d="M790.7,229.2H783l-6.5-20.4h-49.3l-6.4,20.4h-7.5l38.8-124.6L790.7,229.2z M785.4,225.9h0.8l-34.1-110.2
		l-34.3,110.2h0.6l6.4-20.4h54.1L785.4,225.9z M778.8,204.7h-53.5l26.8-87.1L778.8,204.7z M729.7,201.4h44.6l-22.2-72.6L729.7,201.4
		z"/>
	<path class="st0" d="M846.3,113.4h19.1c31.8,0,57.7,25.9,57.7,57.5c0,31.8-25.4,56.6-57.7,56.6h-19.1V113.4z M865.3,223.6
		c30,0,53.6-23.2,53.6-52.7c0-29.3-24-53.6-53.6-53.6h-15v106.3H865.3z"/>
	<path class="st0" d="M865.4,229.2h-20.7V111.7h20.7c32.7,0,59.4,26.6,59.4,59.2C924.8,203.6,898.7,229.2,865.4,229.2 M848,225.9
		h17.4c31.4,0,56.1-24.1,56.1-54.9c0-30.8-25.2-55.9-56.1-55.9H848V225.9z M865.3,225.2h-16.6V115.7h16.6
		c30.5,0,55.3,24.8,55.3,55.3C920.5,201.4,896.3,225.2,865.3,225.2 M851.9,222h13.4c29.2,0,52-22.4,52-51c0-28.7-23.3-52-52-52
		h-13.4V222z"/>
	<path class="st0" d="M962.1,110.1l36.4,117.4h-4.2l-6.5-20.4H936l-6.4,20.4h-4.1L962.1,110.1z M986.6,203.1l-24.5-79.9l-24.6,79.9
		H986.6z"/>
	<path class="st0" d="M1000.7,229.2H993l-6.5-20.4h-49.3l-6.4,20.4h-7.5l38.8-124.6L1000.7,229.2z M995.4,225.9h0.8l-34.1-110.2
		l-34.3,110.2h0.6l6.4-20.4h54.1L995.4,225.9z M988.8,204.7h-53.5l26.9-87.1L988.8,204.7z M939.7,201.4h44.6l-22.2-72.6L939.7,201.4
		z"/>
	<path class="st1" d="M487.1,247.4h-26.6v111h7v-42h15.7c18.1,0,37.5-14.1,37.5-35C520.8,262.7,505.7,247.4,487.1,247.4
		 M467.5,254.4H487c14.7,0,26.7,12.1,26.7,27c0,14.9-14.2,28.1-30.4,28.1h-15.7V254.4z"/>
	<polygon class="st1" points="532.9,358.4 588.5,358.4 588.5,351.5 539.9,351.5 539.9,291.8 587.3,291.8 587.3,284.8 539.9,284.8 
		539.9,254.4 588.5,254.4 588.5,247.4 532.9,247.4 	"/>
	<path class="st1" d="M621.8,247.4h-19.6v111h19.6c31.5,0,56.1-24.2,56.1-55C677.9,272.5,652.7,247.4,621.8,247.4 M609.1,254.4h12.5
		c27,0,49,22,49,49c0,27-21.5,48.1-49,48.1h-12.5V254.4z"/>
	<rect x="691.6" y="247.4" class="st1" width="7" height="111"/>
	<path class="st1" d="M712.4,358.4h7.3l6-19.2H772l6.2,19.2h7.4l-36.5-118L712.4,358.4z M769.9,332.1H728l21-68.2L769.9,332.1z"/>
	<polygon class="st1" points="776.4,254.4 807.1,254.4 807.1,358.4 814.1,358.4 814.1,254.4 845.2,254.4 845.2,247.4 776.4,247.4 	
		"/>
	<path class="st1" d="M921.1,283.4c0-19.8-16.1-36-35.8-36h-28v111h7v-37.7H881c4,0,8.1-0.6,12.1-1.8l20.1,39.5h7.8l-21.4-42.1
		C912.5,309.8,921.1,296.8,921.1,283.4 M864.3,254.4h20.8c15.7,0,28.5,13,28.5,29c0,16.6-14.7,30.1-32.8,30.1h-16.5V254.4z"/>
	<path class="st1" d="M965.5,240.5l-36.7,118h7.3l6-19.2h46.4l6.2,19.2h7.4L965.5,240.5z M986.3,332.1h-41.9l21-68.2L986.3,332.1z"
		/>
</g>
</svg>
